<svg id="Capa_1" enable-background="new 0 0 511.5 511.5" height="512" viewBox="0 0 511.5 511.5" width="512" xmlns="http://www.w3.org/2000/svg"><g id="Outline_34_" fill="#233d91"><path d="m419.25 374.52v-193.02c0-31.324-8.926-61.785-25.811-88.089-16.136-25.135-38.743-45.335-65.434-58.538-7.8-9.094-19.362-14.873-32.255-14.873-1.281 0-2.563.059-3.84.175-7.668-12.418-21.302-20.175-36.16-20.175s-28.492 7.757-36.16 20.175c-1.276-.116-2.559-.175-3.84-.175-12.893 0-24.455 5.779-32.256 14.873-26.691 13.203-49.298 33.403-65.434 58.538-16.884 26.304-25.81 56.765-25.81 88.089v193.021c-14.88 12.619-24 31.421-24 51.559v85.42h15v-85.42c0-21.762 13.69-41.517 34.066-49.157l70.179-26.317c4.292 22.497 19.456 41.593 40.776 50.737.448 14.773 12.598 26.657 27.479 26.657s27.031-11.884 27.479-26.657c21.321-9.145 36.485-28.24 40.776-50.737l70.18 26.318c20.375 7.641 34.065 27.396 34.065 49.157v85.42h15v-85.42c0-20.14-9.12-38.941-24-51.561zm-203.5-339.52c2.101 0 4.203.243 6.249.723l6.067 1.421 2.509-5.703c4.394-9.988 14.276-16.441 25.175-16.441s20.781 6.453 25.175 16.44l2.509 5.703 6.067-1.421c2.046-.479 4.148-.723 6.249-.723 15.163 0 27.5 12.337 27.5 27.5 0 3.385-.625 6.677-1.801 9.769-19.199-11.59-41.683-18.268-65.699-18.268s-46.5 6.678-65.699 18.269c-1.176-3.092-1.801-6.384-1.801-9.769 0-15.163 12.337-27.5 27.5-27.5zm-87.5 321.803-16.2 6.075c-1.634.613-3.235 1.286-4.8 2.017v-183.395c0-49.692 25.452-96.224 66.248-123.555-.16 1.497-.248 3.016-.248 4.555 0 6.468 1.443 12.729 4.204 18.442-29.926 23.353-49.204 59.745-49.204 100.558zm127.5 56.197c-6.893 0-12.5-5.607-12.5-12.5s5.607-12.5 12.5-12.5 12.5 5.607 12.5 12.5-5.607 12.5-12.5 12.5zm23.704-26.417c-4.786-8.12-13.617-13.583-23.704-13.583s-18.918 5.463-23.704 13.583c-16.358-7.871-27.685-23.385-30.239-41.345l17.443-6.541v-37.237c11.012 5.457 23.4 8.54 36.5 8.54s25.488-3.083 36.5-8.54v37.237l17.443 6.541c-2.554 17.96-13.881 33.474-30.239 41.345zm-91.204-159.083v-41.879c13.209-3.921 27.102-15.083 35.92-25.254 12.331 12.185 35.517 26.633 67.58 26.633h31.5v40.5c0 37.22-30.28 67.5-67.5 67.5s-67.5-30.28-67.5-67.5zm180 123.677-61-22.875v-36.421c18.878-15.132 31-38.362 31-64.382v-55.499h-46.5c-33.068 0-54.961-18.241-61.917-27.887l-6.528-9.053-5.915 9.465c-7.205 11.528-25.834 26.484-37.304 27.504l-6.836.608v54.863c0 26.02 12.122 49.25 31 64.382v36.421l-61 22.875v-169.678c0-62.033 50.467-112.5 112.5-112.5s112.5 50.467 112.5 112.5zm36 13.718c-1.565-.731-3.165-1.404-4.799-2.017l-16.201-6.075v-175.303c0-40.813-19.279-77.205-49.204-100.558 2.761-5.713 4.204-11.975 4.204-18.442 0-1.539-.087-3.058-.248-4.555 40.796 27.331 66.248 73.864 66.248 123.555z"/><path d="m364.25 446.415c-12.384-13.05-31.313-21.415-52.5-21.415-21.808 0-45.494 19.908-56 29.891-10.506-9.982-34.192-29.891-56-29.891-21.187 0-40.116 8.365-52.5 21.415v-24.915h-15v90h15v-29c0-23.435 23.552-42.5 52.5-42.5 18.192 0 42.617 22.082 50.489 30.588l5.511 5.968 5.511-5.968c7.855-8.508 32.239-30.588 50.489-30.588 28.948 0 52.5 19.065 52.5 42.5v29h15v-90h-15z"/></g></svg>