<svg id="Capa_1" enable-background="new 0 0 511.031 511.031" height="512" viewBox="0 0 511.031 511.031" width="512" xmlns="http://www.w3.org/2000/svg"><g id="Outline_5_" fill="#233d91"><path d="m443.515 256.031h-82.073c-18.746 0-36.318-8.358-48.123-22.622l17.206-17.126c5.49-5.464 8.505-12.726 8.49-20.447 0-.102-.007-.203-.008-.305h.008v-100.099l109-26.371v71.57c-10.249-5.617-23.219-4.623-32.5 2.974-11.368-9.305-28.276-8.707-38.93 1.817-5.511 5.443-8.555 12.693-8.57 20.414s3 14.983 8.49 20.447l39.01 38.83 39.01-38.83c5.49-5.464 8.505-12.726 8.49-20.447 0-.102-.007-.203-.008-.305h.008v-165.531l-139 33.629v137.003c-10.249-5.617-23.219-4.624-32.5 2.973-4.406-3.606-9.644-5.718-15.028-6.348l-2.291-4.279c-25.406-47.462-74.632-76.947-128.467-76.947-80.347 0-145.714 65.367-145.714 145.714v264.286h28v15h455v-15h28v-172.5c0-37.22-30.28-67.5-67.5-67.5zm.429-80.379-28.428 28.297-28.428-28.297c-5.409-5.168-5.39-14.411.039-19.558 2.743-2.709 6.338-4.062 9.934-4.062 3.613 0 7.227 1.367 9.972 4.1l8.484 8.446 8.483-8.446c5.478-5.452 14.408-5.468 19.907-.037 5.427 5.146 5.445 14.389.037 19.557zm-104.929-130.219 109-26.371v34.568l-109 26.37zm-65.956 136.599c3.613 0 7.227 1.367 9.972 4.1l8.484 8.446 8.483-8.446c5.478-5.452 14.408-5.468 19.907-.037 5.428 5.146 5.446 14.389.038 19.557l-28.428 28.297-28.428-28.297c-5.409-5.168-5.39-14.411.039-19.558 2.742-2.709 6.338-4.062 9.933-4.062zm-245.044 298.999h-13v-50h13zm40 15h-25v-65h25zm40 0h-25v-65h25zm40 0h-25v-65h25zm40 0h-25v-65h25zm40 0h-25v-65h25zm40 0h-25v-65h25zm40 0h-25v-65h25zm40 0h-25v-65h25zm40 0h-25v-65h25zm40 0h-25v-65h25zm40 0h-25v-65h25zm28-15h-13v-50h13zm0-65h-481v-184.286c0-72.076 58.638-130.714 130.715-130.714 48.171 0 92.224 26.32 115.065 68.708-2.971 1.371-5.758 3.261-8.21 5.683-5.511 5.443-8.555 12.693-8.57 20.414s3 14.983 8.49 20.447l39.01 38.83 11.139-11.087c14.624 17.048 36.007 27.005 58.789 27.005h82.073c28.949 0 52.5 23.551 52.5 52.5v92.5z"/><path d="m101.015 305.683c-7.368-2.846-15.901-1.936-22.5 2.764-9.203-6.556-22.183-5.778-30.49 2.349-4.508 4.411-6.998 10.292-7.01 16.56-.012 6.267 2.455 12.157 6.945 16.584l30.555 30.124 30.555-30.124c4.448-4.386 6.907-10.207 6.941-16.408h.004v-70.486l81-25.312v43.951c-7.368-2.846-15.902-1.937-22.5 2.764-9.203-6.556-22.183-5.778-30.49 2.349-4.508 4.411-6.998 10.292-7.01 16.56-.012 6.267 2.455 12.157 6.945 16.584l30.555 30.124 30.555-30.124c4.448-4.386 6.907-10.207 6.941-16.408h.004v-126.205l-111 34.688zm-2.476 27.574-20.024 19.741-20.024-19.741c-1.601-1.578-2.48-3.664-2.476-5.874s.892-4.293 2.5-5.866c1.7-1.663 3.929-2.494 6.158-2.494 2.24 0 4.48.839 6.182 2.518l7.66 7.552 7.66-7.552c3.396-3.348 8.932-3.358 12.34-.023 1.607 1.573 2.495 3.656 2.5 5.866.005 2.209-.875 4.295-2.476 5.873zm96-30-20.024 19.741-20.024-19.741c-1.601-1.578-2.48-3.664-2.476-5.874s.892-4.293 2.5-5.866c1.7-1.663 3.929-2.494 6.158-2.494 2.24 0 4.48.839 6.182 2.518l7.66 7.552 7.66-7.552c3.396-3.348 8.932-3.359 12.34-.023 1.607 1.573 2.495 3.656 2.5 5.866.005 2.209-.875 4.295-2.476 5.873zm-78.524-86.212 81-25.312v24.284l-81 25.312z"/><path d="m246.015 32.031h15v15h-15z"/><path d="m246.015 82.031h15v15h-15z"/><path d="m271.015 57.031h15v15h-15z"/><path d="m221.015 57.031h15v15h-15z"/><path d="m296.015 302.031h15v15h-15z"/><path d="m296.015 352.031h15v15h-15z"/><path d="m321.015 327.031h15v15h-15z"/><path d="m271.015 327.031h15v15h-15z"/></g></svg>