<svg id="Capa_1" enable-background="new 0 0 511.458 511.458" height="512" viewBox="0 0 511.458 511.458" width="512" xmlns="http://www.w3.org/2000/svg"><g id="Outline_6_"><path d="m476.635 157.269c5.602-8.282 8.589-18.059 8.526-28.312-.172-27.759-22.895-50.395-50.653-50.458l-1.544-.003-.003-1.544c-.064-27.759-22.7-50.482-50.458-50.653-10.244-.071-20.027 2.92-28.313 8.526-4.794-19.777-22.627-34.648-43.78-34.822-12.015-.135-23.328 4.498-31.806 12.944-8.478 8.445-13.118 19.72-13.065 31.749l.356 79.963-14.398 14.391c-7.926-9.473-10.357-17.03-13.076-25.55-3.366-10.549-7.182-22.506-22.17-37.493l-7.934-7.934-117.454 283.268-21.446-53.614-13.927 5.571 21.785 54.462-54.462-21.785-5.571 13.927 54.403 21.761-71.644 32.566 107.229 107.229 38.61-84.942 297.547-123.374-7.934-7.934c-14.988-14.988-26.945-18.805-37.495-22.171-8.519-2.719-16.076-5.15-25.548-13.074l14.391-14.397 79.963.356h.201c11.952 0 23.15-4.636 31.547-13.066 8.446-8.479 13.043-19.774 12.944-31.806-.173-21.154-15.047-38.987-34.821-43.781zm-187.447-133.695c5.556-5.534 12.949-8.573 20.844-8.573.083 0 .169 0 .253.001 16.57.136 30.109 13.734 30.181 30.32l.018 3.289c-5.445 8.166-8.358 17.771-8.335 27.844l.102 44.055-51.378-.224-.337-75.655c-.034-7.987 3.038-15.465 8.652-21.057zm-12.689 111.692 55.787.244.077 32.98-11.997 11.997c-12.473-10.817-22.781-14.107-32.012-17.052-8.746-2.792-16.478-5.276-26.31-13.719zm-173.968 350.28-76.619-76.619 63.198-28.726 42.147 42.147zm39.463-73.674-42.408-42.408 85.911-207.197c3.19 9.517 7.775 20.258 20.806 33.288 14.987 14.988 26.944 18.804 37.492 22.171 10.214 3.26 19.035 6.076 31.448 18.489s15.229 21.233 18.489 31.448c3.367 10.548 7.184 22.505 22.171 37.492 13.03 13.03 23.771 17.616 33.288 20.806zm251.403-124.545c7.676 2.45 14.566 4.649 22.783 10.858l-46.215 19.162c-4.202-1.808-8.161-3.081-12.01-4.31-10.215-3.262-19.037-6.079-31.446-18.488-12.412-12.412-15.228-21.233-18.488-31.447-3.367-10.549-7.184-22.505-22.172-37.493s-26.944-18.805-37.493-22.172c-10.214-3.26-19.035-6.076-31.447-18.488-12.409-12.409-15.226-21.231-18.488-31.446-1.229-3.849-2.502-7.809-4.31-12.01l19.162-46.214c6.208 8.217 8.407 15.105 10.856 22.781 3.366 10.549 7.182 22.506 22.169 37.493 14.988 14.988 26.945 18.804 37.494 22.17 10.214 3.26 19.036 6.075 31.448 18.487 12.413 12.413 15.229 21.234 18.489 31.449 3.367 10.55 7.183 22.507 22.172 37.495 14.989 14.99 26.946 18.806 37.496 22.173zm-31.653-37.912c-8.447-9.835-10.933-17.568-13.725-26.316-2.946-9.229-6.235-19.535-17.048-32.006l11.997-11.997 32.98.076.244 55.787zm-14.391-85.309-.204-87.687c-.022-9.445 3.632-18.298 10.289-24.929 6.604-6.579 15.384-10.193 24.745-10.193.075 0 .151 0 .226.001 19.558.12 35.506 16.13 35.551 35.688l.039 16.474 16.475.039c19.557.045 35.567 15.993 35.688 35.551.059 9.445-3.561 18.313-10.192 24.971-6.611 6.637-15.431 10.289-24.845 10.289-.028 0-.057 0-.084 0zm140.532 58.165c-5.561 5.583-12.986 8.652-20.922 8.652-.044 0-.089 0-.134 0l-75.656-.337-.224-51.378 44.055.102h.119c10.028 0 19.589-2.912 27.722-8.335l3.298.018c16.579.072 30.177 13.611 30.312 30.181.068 7.99-2.977 15.482-8.57 21.097z" fill="#233d91"/></g></svg>