<svg id="Capa_1" enable-background="new 0 0 511 511" height="512" viewBox="0 0 511 511" width="512" xmlns="http://www.w3.org/2000/svg"><g id="Outline_22_" fill="#233d91"><path d="m508.784 112.693c-.218-7.516-3.568-14.697-9.192-19.703-67.365-59.966-154.053-92.99-244.092-92.99s-176.726 33.024-244.093 92.99c-5.624 5.006-8.974 12.187-9.192 19.703-.221 7.601 2.619 14.748 7.995 20.124l.188.188c5.328 5.328 12.34 8.016 19.364 8.016 6.471 0 12.951-2.284 18.123-6.89 57.293-51.029 131.026-79.131 207.615-79.131 76.59 0 150.322 28.102 207.615 79.13 10.783 9.605 27.251 9.111 37.486-1.125l.188-.188c5.377-5.376 8.216-12.523 7.995-20.124zm-18.601 9.517-.187.188c-4.622 4.621-12.048 4.855-16.904.531-60.043-53.478-137.318-82.929-217.592-82.929-80.272 0-157.548 29.451-217.592 82.929-4.857 4.325-12.282 4.092-16.904-.531l-.188-.188c-2.426-2.426-3.708-5.652-3.608-9.083.1-3.456 1.582-6.628 4.172-8.934 64.617-57.517 147.762-89.193 234.12-89.193 86.357 0 169.503 31.676 234.119 89.194 2.59 2.306 4.071 5.479 4.172 8.934.1 3.431-1.181 6.656-3.608 9.082z"/><path d="m435.571 166.514c-50.185-42.892-114.134-66.514-180.071-66.514-65.936 0-129.886 23.622-180.07 66.514-5.728 4.895-9.183 12.036-9.478 19.591-.298 7.617 2.622 15.076 8.011 20.465l.224.224c9.999 9.999 26.313 10.598 37.14 1.367 40.204-34.281 91.406-53.161 144.173-53.161 52.768 0 103.969 18.88 144.173 53.161 5.137 4.381 11.508 6.548 17.854 6.548 7.027 0 14.024-2.658 19.279-7.909l.23-.23c5.389-5.39 8.309-12.849 8.011-20.465-.295-7.556-3.749-14.696-9.476-19.591zm-9.135 29.444-.23.23c-4.58 4.58-11.803 4.82-16.8.56-42.916-36.595-97.574-56.748-153.906-56.748-56.331 0-110.989 20.153-153.905 56.747-4.998 4.262-12.221 4.021-16.801-.56l-.224-.224c-2.478-2.478-3.766-5.771-3.629-9.272.135-3.44 1.639-6.556 4.235-8.775 47.47-40.572 107.959-62.916 170.324-62.916s122.854 22.344 170.324 62.916c2.597 2.219 4.101 5.335 4.235 8.775.138 3.502-1.152 6.795-3.623 9.267z"/><path d="m157.351 288.603c5.948 0 11.93-1.916 16.938-5.806 23.41-18.185 51.492-27.797 81.211-27.797s57.801 9.612 81.211 27.796c10.94 8.5 26.527 7.571 36.255-2.156l.145-.144c5.542-5.542 8.444-13.209 7.961-21.034-.482-7.827-4.307-15.081-10.491-19.902-33.199-25.88-72.993-39.56-115.081-39.56-42.087 0-81.881 13.68-115.081 39.561-6.184 4.822-10.008 12.076-10.491 19.903-.482 7.824 2.419 15.491 7.962 21.033l.143.143c5.276 5.275 12.273 7.963 19.318 7.963zm-12.45-28.216c.221-3.59 1.905-6.785 4.742-8.996 30.538-23.807 67.143-36.391 105.857-36.391s75.319 12.584 105.857 36.391c2.837 2.211 4.521 5.406 4.743 8.996.221 3.587-1.057 6.962-3.588 9.494l-.152.152c-4.396 4.394-11.466 4.788-16.448.917-26.065-20.247-57.33-30.95-90.412-30.95-33.083 0-64.347 10.703-90.413 30.951-4.982 3.872-12.052 3.477-16.447-.917l-.143-.143c-2.54-2.541-3.818-5.916-3.596-9.504z"/><path d="m322.822 357.976 26.856-19.95-14.178-34.026h-60l-14.178 34.025 26.857 19.95c-12.248 2.808-23.396 8.517-32.679 16.377-9.283-7.86-20.431-13.569-32.679-16.377l26.856-19.95-14.177-34.025h-60l-14.177 34.025 26.856 19.95c-34.419 7.892-60.179 38.747-60.179 75.525 0 42.734 34.766 77.5 77.5 77.5 19.043 0 36.493-6.917 50-18.353 13.507 11.436 30.957 18.353 50 18.353 42.733 0 77.5-34.766 77.5-77.5 0-36.778-25.76-67.632-60.178-75.524zm-43.144-25.001 5.822-13.975h40l5.822 13.975-25.822 19.182zm-100.001 0 5.823-13.975h40l5.823 13.975-25.823 19.182zm25.823 163.025c-34.462 0-62.5-28.038-62.5-62.5s28.038-62.5 62.5-62.5c14.98 0 28.742 5.302 39.519 14.122-10.636 13.27-17.019 30.088-17.019 48.378s6.383 35.108 17.019 48.378c-10.777 8.82-24.539 14.122-39.519 14.122zm50-25.043c-7.845-10.446-12.5-23.417-12.5-37.457s4.655-27.011 12.5-37.457c7.845 10.446 12.5 23.417 12.5 37.457s-4.655 27.011-12.5 37.457zm50 25.043c-14.98 0-28.742-5.302-39.519-14.122 10.636-13.27 17.019-30.088 17.019-48.378s-6.383-35.108-17.019-48.378c10.777-8.82 24.539-14.122 39.519-14.122 34.463 0 62.5 28.038 62.5 62.5s-28.037 62.5-62.5 62.5z"/></g></svg>