<svg id="Capa_1" enable-background="new 0 0 511 511" height="512" viewBox="0 0 511 511" width="512" xmlns="http://www.w3.org/2000/svg"><g id="Outline_13_" fill="#233d91"><path d="m374.316 136 40.367-40.523c21.782-21.867 21.713-57.377-.154-79.159-10.567-10.526-24.59-16.318-39.5-16.318-.037 0-.075 0-.112 0-14.951.029-28.996 5.879-39.547 16.471l-1.87 1.877-1.87-1.877c-10.552-10.593-24.597-16.442-39.548-16.471-.037 0-.073 0-.111 0-14.909 0-28.934 5.792-39.499 16.318-21.867 21.781-21.937 57.292-.154 79.159l40.366 40.523h-136.684v105h15v45h-171v85h15v140h237.5 7.5 236v-270h15v-105zm-111.372-51.109c-15.944-16.007-15.893-42.002.114-57.946 7.734-7.705 17.999-11.945 28.914-11.945h.081c10.945.021 21.227 4.303 28.95 12.057l12.497 12.546 12.497-12.545c7.724-7.754 18.005-12.036 28.949-12.057h.082c10.914 0 21.18 4.24 28.914 11.945 16.007 15.944 16.058 41.939.113 57.946l-50.911 51.108h-39.288zm-91.944 66.109h115v75h-115zm-156 150h80v55h-80zm95 195h-80v-125h80zm0-195h55v55h-55zm40 195h-25v-125h25zm95 0h-80v-125h80zm-65-140v-55h80v55zm121 140h-41v-125h15v-85h-89v-45h115zm0-345h65v75h-65zm50 345h-35v-255h35zm130 0h-115v-255h115zm15-270h-115v-75h115z"/><path d="m124.5 130.127 51.678-51.879c6.998-7.025 10.842-16.355 10.822-26.271s-3.898-19.23-10.924-26.229c-7.008-6.981-16.308-10.823-26.197-10.823-.024 0-.05 0-.074 0-9.485.018-18.421 3.569-25.305 10.027-6.884-6.458-15.819-10.009-25.305-10.027-.025 0-.05 0-.074 0-9.889 0-19.189 3.842-26.197 10.823-7.026 6.999-10.904 16.314-10.924 26.23s3.824 19.246 10.822 26.271zm-40.99-93.751c4.177-4.16 9.719-6.45 15.612-6.45h.044c5.909.011 11.46 2.323 15.631 6.51l9.703 9.741 9.703-9.741c4.171-4.187 9.722-6.499 15.631-6.51h.044c5.894 0 11.437 2.29 15.612 6.45 4.187 4.17 6.498 9.722 6.51 15.631s-2.279 11.469-6.449 15.656l-41.051 41.21-41.051-41.21c-4.17-4.187-6.461-9.747-6.449-15.656s2.323-11.461 6.51-15.631z"/><path d="m50.5 217.901 34.818-34.953c10.254-10.295 10.222-27.012-.072-37.266-4.975-4.955-11.576-7.682-18.596-7.682-.017 0-.035 0-.053 0-5.906.011-11.513 1.953-16.098 5.523-4.586-3.57-10.191-5.511-16.098-5.523-.019 0-.035 0-.053 0-7.02 0-13.622 2.728-18.596 7.682-10.294 10.253-10.326 26.971-.072 37.266zm-24.16-61.592c2.143-2.134 4.986-3.309 8.01-3.309h.023c3.032.006 5.88 1.192 8.02 3.341l8.107 8.137 8.108-8.138c2.139-2.148 4.986-3.334 8.019-3.34h.022c3.023 0 5.868 1.175 8.011 3.309 4.435 4.417 4.448 11.618.031 16.053l-24.191 24.285-24.191-24.285c-4.417-4.435-4.404-11.636.031-16.053z"/></g></svg>