<svg id="Capa_1" enable-background="new 0 0 511 511" height="512" viewBox="0 0 511 511" width="512" xmlns="http://www.w3.org/2000/svg"><g id="Outline_43_"><path d="m496 331.988v-12.5c0-21.136-13.88-39.084-33-45.229v-119.771c0-12.406-10.094-22.5-22.5-22.5-11.018 0-20.205 7.963-22.125 18.434-14.574-2.816-45.896-8.515-81.434-12.813l22.088-22.112c9.034-9.043 13.995-21.055 13.971-33.821s-5.032-24.758-14.102-33.767c-18.707-18.581-49.084-18.521-67.718.131l-.681.682-.68-.682c-18.633-18.652-49.012-18.714-67.719-.131-.405.402-.792.818-1.181 1.232l-1.1-1.101c-18.633-18.652-49.012-18.714-67.719-.131-9.069 9.009-14.077 21-14.102 33.767s4.937 24.778 13.971 33.821l22.088 22.112c-35.538 4.298-66.86 9.996-81.434 12.813-1.92-10.471-11.107-18.434-22.125-18.434-12.406 0-22.5 10.094-22.5 22.5v119.772c-19.12 6.145-33 24.093-33 45.229v12.5h-14.998v115h18v30h75v-30h325v30h75v-30h18v-115h-15zm-63-177.5c0-4.136 3.364-7.5 7.5-7.5s7.5 3.364 7.5 7.5v117.5h-15zm-200.327-95.936c6.411-6.37 14.815-9.552 23.222-9.552 8.446 0 16.895 3.216 23.313 9.642l11.292 11.303 11.292-11.303c12.806-12.82 33.682-12.858 46.536-.09 6.22 6.179 9.655 14.401 9.672 23.153s-3.386 16.988-9.582 23.19l-57.918 57.981-57.918-57.979c-6.196-6.202-9.599-14.438-9.582-23.19s3.452-16.976 9.673-23.155zm-70.091 46.344c-6.196-6.202-9.599-14.438-9.582-23.19s3.452-16.975 9.673-23.153c12.854-12.771 33.729-12.731 46.535.09l3.157 3.161c-2.84 6.154-4.352 12.896-4.365 19.874-.024 12.767 4.937 24.778 13.971 33.821l22.928 22.953-24.399 24.424zm-69.582 60.734c14.302-2.807 52.524-9.916 94.591-14.474l32.909 32.944 35-35.037 35 35.037 32.909-32.944c42.067 4.558 80.289 11.667 94.591 14.474v106.358h-25v-38.5c0-15.163-12.337-27.5-27.5-27.5h-70c-15.163 0-27.5 12.337-27.5 27.5v38.5h-25v-38.5c0-15.163-12.337-27.5-27.5-27.5h-70c-15.163 0-27.5 12.337-27.5 27.5v38.5h-25zm285 67.858v38.5h-95v-38.5c0-6.893 5.607-12.5 12.5-12.5h70c6.893 0 12.5 5.607 12.5 12.5zm-150 0v38.5h-95v-38.5c0-6.893 5.607-12.5 12.5-12.5h70c6.893 0 12.5 5.607 12.5 12.5zm-165-79c0-4.136 3.364-7.5 7.5-7.5s7.5 3.364 7.5 7.5v117.5h-15zm-33 165c0-17.921 14.579-32.5 32.5-32.5h386c17.921 0 32.5 14.579 32.5 32.5v12.5h-451zm48 142.5h-45v-15h45zm400 0h-45v-15h45zm18-30h-481v-85h481z" fill="#233d91"/></g></svg>