<svg id="Capa_1" enable-background="new 0 0 511.126 511.126" height="512" viewBox="0 0 511.126 511.126" width="512" xmlns="http://www.w3.org/2000/svg"><g id="Outline_17_" fill="#233d91"><path d="m472.532 81.806c-24.802-24.71-57.716-38.306-92.714-38.306-.085 0-.175 0-.261 0-35.094.067-68.06 13.8-92.822 38.665l-13.047 13.097-13.046-13.096c-24.763-24.866-57.729-38.598-92.823-38.666-.088 0-.173 0-.261 0-34.995 0-67.914 13.599-92.713 38.306-16.3 16.239-28.082 36.496-34.069 58.58-3.817 14.077-5.235 28.716-4.278 43.222l-36.498 6.435 15.231 86.383c1.588 9.007 6.589 16.856 14.081 22.102 7.492 5.247 16.58 7.26 25.584 5.672l47.653-8.403 46.927 47.121-23.596 48.319 61.011-10.758 86.797 87.147 199.204-200.005c51.12-51.331 50.958-134.687-.36-185.815zm-351.976 210.816 58.52-10.319-22.635 46.352zm31.729 78.728 53.195-108.934-153.188 27.011c-5.064.894-10.166-.24-14.376-3.187-4.209-2.948-7.02-7.358-7.912-12.419l-12.627-71.611 16.938-2.986 31.439 43.736 314.876-82.87c7.686-2.021 15.912-.689 22.564 3.658l18.885 12.34-31.118 6.614 3.119 14.672 45.707-9.715 3.527 2.304c4.003 2.615 6.776 6.818 7.607 11.528 1.663 9.436-4.66 18.467-14.097 20.13l-105.73 18.644-140.97 124.412zm25.276-173.327-60.74-58.6 37.837-6.672 108.743 42.68zm284.704 59.013-188.577 189.335-71.789-72.079 135.956-119.986 101.574-17.91c17.581-3.1 29.363-19.926 26.263-37.508-1.548-8.777-6.715-16.606-14.174-21.48l-40.119-26.216c-10.199-6.664-22.805-8.709-34.588-5.607l-88.834 23.379-131.767-51.718-71.003 12.52 75.38 72.724-88.674 23.337-17.717-24.646c-9.146-39.53 2.466-80.088 31.236-108.749 21.969-21.888 51.126-33.932 82.127-33.932h.231c31.087.06 60.288 12.224 82.225 34.251l23.673 23.764 23.675-23.765c21.936-22.026 51.137-34.19 82.224-34.25h.23c31 0 60.159 12.046 82.127 33.932 45.461 45.292 45.604 119.133.321 164.604z"/><path d="m335.286 193.556h15.001v15h-15.001z" transform="matrix(.975 -.224 .224 .975 -36.337 81.93)"/><path d="m291.431 203.643h15v15h-15z" transform="matrix(.975 -.224 .224 .975 -39.731 72.402)"/><path d="m203.722 223.817h15v15h-15z" transform="matrix(.975 -.224 .224 .975 -46.476 53.233)"/><path d="m247.576 213.73h15v15h-15z" transform="matrix(.975 -.224 .224 .975 -43.099 62.806)"/><path d="m159.867 233.905h15v15h-15z" transform="matrix(.975 -.224 .224 .975 -49.853 43.659)"/></g></svg>