<svg id="Capa_1" enable-background="new 0 0 511.5 511.5" height="512" viewBox="0 0 511.5 511.5" width="512" xmlns="http://www.w3.org/2000/svg"><g id="Outline_38_" fill="#233d91"><path d="m391.252 20.227v-20.227h-295v152.155c-37.176 26.343-59.443 67.71-59.999 111.696l-33.867 72.436c-2.915 6.244-2.846 13.375.189 19.564 3.036 6.188 8.633 10.607 15.36 12.126l23.377 5.262 4.141 45.146c2.433 26.549 23.559 46.832 49.799 48.492v44.623h15v-44.5h72.99v-15h-84.51c-20.031 0-36.515-15.04-38.342-34.985l-5.139-56.014-34.02-7.657c-2.271-.513-4.164-2.006-5.189-4.098-1.026-2.093-1.051-4.503-.067-6.609l35.267-75.43v-1.667c0-36.189 16.6-70.56 45.01-94.439v123.899h223.906c-1.184 37.35-14.809 74.073-38.631 103.88l-38.274 46.605v66.015h15v-60.646l34.929-42.532c26.001-32.532 40.797-72.583 41.984-113.322h56.087v-20.227c66.826-3.896 120-59.488 120-127.273s-53.176-123.377-120.001-127.273zm-15 259.773h-265v-265h265zm15-164.117c14.315 3.396 25 16.278 25 31.617s-10.685 28.221-25 31.617zm0 143.861v-65.342c22.64-3.607 40-23.263 40-46.902s-17.36-43.295-40-46.902v-65.342c58.548 3.873 105 52.733 105 112.244s-46.452 108.371-105 112.244z"/><path d="m200.752 237c16.326 0 31.314-5.828 43-15.51 11.686 9.682 26.674 15.51 43 15.51 37.22 0 67.5-30.28 67.5-67.5 0-31.325-21.45-57.729-50.432-65.309l19.269-14.274-14.508-31.917h-43.658l-14.508 31.917 19.269 14.274c-9.651 2.524-18.466 7.133-25.932 13.319-7.466-6.186-16.282-10.795-25.932-13.319l19.269-14.274-14.508-31.917h-43.658l-14.508 31.917 19.269 14.274c-28.982 7.58-50.432 33.984-50.432 65.309 0 37.22 30.28 67.5 67.5 67.5zm68.337-151.917 5.492-12.083h24.342l5.492 12.083-17.663 13.084zm-14.884 43.269c8.954-7.098 20.26-11.352 32.546-11.352 28.948 0 52.5 23.552 52.5 52.5s-23.551 52.5-52.499 52.5c-12.287 0-23.592-4.254-32.546-11.352 8.796-11.4 14.046-25.669 14.046-41.148 0-15.48-5.25-29.748-14.047-41.148zm-10.453 11.082c5.978 8.523 9.5 18.888 9.5 30.066s-3.522 21.542-9.5 30.065c-5.978-8.523-9.5-18.888-9.5-30.065s3.522-21.542 9.5-30.066zm-60.663-54.351 5.492-12.083h24.342l5.492 12.083-17.663 13.084zm17.663 31.917c12.287 0 23.592 4.254 32.547 11.352-8.796 11.4-14.047 25.669-14.047 41.148s5.25 29.749 14.047 41.148c-8.954 7.098-20.26 11.352-32.547 11.352-28.948 0-52.5-23.552-52.5-52.5s23.552-52.5 52.5-52.5z"/></g></svg>