<svg id="Capa_1" enable-background="new 0 0 512 512" height="512" viewBox="0 0 512 512" width="512" xmlns="http://www.w3.org/2000/svg"><g id="Outline_46_" fill="#233d91"><path d="m88.5 136v240c0 20.678 16.822 37.5 37.5 37.5h3.5 253 3.5c20.678 0 37.5-16.822 37.5-37.5v-240c0-20.678-16.822-37.5-37.5-37.5h-260c-20.678 0-37.5 16.822-37.5 37.5zm141 262.5h-85v-21.5c0-15.876 8.666-30.126 22.424-37.47 5.532 4.359 12.502 6.97 20.076 6.97s14.544-2.611 20.076-6.97c13.759 7.344 22.424 21.594 22.424 37.47zm-60-84.5v-10c0-9.649 7.851-17.5 17.5-17.5s17.5 7.851 17.5 17.5v10c0 9.649-7.851 17.5-17.5 17.5s-17.5-7.851-17.5-17.5zm198 84.5h-85v-21.5c0-15.876 8.666-30.126 22.424-37.47 5.532 4.359 12.502 6.97 20.076 6.97s14.544-2.611 20.076-6.97c13.759 7.344 22.424 21.594 22.424 37.47zm-60-84.5v-10c0-9.649 7.851-17.5 17.5-17.5s17.5 7.851 17.5 17.5v10c0 9.649-7.851 17.5-17.5 17.5s-17.5-7.851-17.5-17.5zm101-178v240c0 12.406-10.093 22.5-22.5 22.5h-3.5v-21.5c0-20.567-10.749-39.117-28.004-49.377 1.923-4.146 3.004-8.76 3.004-13.623v-10c0-17.921-14.58-32.5-32.5-32.5s-32.5 14.579-32.5 32.5v10c0 4.863 1.081 9.477 3.004 13.623-17.255 10.26-28.004 28.81-28.004 49.377v21.5h-23v-21.5c0-20.567-10.749-39.117-28.004-49.377 1.923-4.146 3.004-8.76 3.004-13.623v-10c0-17.921-14.58-32.5-32.5-32.5s-32.5 14.579-32.5 32.5v10c0 4.863 1.081 9.477 3.004 13.623-17.255 10.26-28.004 28.81-28.004 49.377v21.5h-3.5c-12.407 0-22.5-10.094-22.5-22.5v-240c0-12.406 10.093-22.5 22.5-22.5h260c12.407 0 22.5 10.094 22.5 22.5z"/><path d="m82.5 30.5h-53v53h53zm-15 38h-23v-23h23z"/><path d="m129.5 30.5v53h53v-53zm38 38h-23v-23h23z"/><path d="m229.5 30.5v53h53v-53zm38 38h-23v-23h23z"/><path d="m329.5 30.5v53h53v-53zm38 38h-23v-23h23z"/><path d="m0 .5h512v15h-512z"/><path d="m482.5 30.5h-53v53h53zm-15 38h-23v-23h23z"/><path d="m0 496.5h512v15h-512z"/><path d="m29.5 481.5h53v-53h-53zm15-38h23v23h-23z"/><path d="m129.5 481.5h53v-53h-53zm15-38h23v23h-23z"/><path d="m229.5 481.5h53v-53h-53zm15-38h23v23h-23z"/><path d="m382.5 481.5v-53h-53v53zm-38-38h23v23h-23z"/><path d="m429.5 428.5v53h53v-53zm38 38h-23v-23h23z"/><path d="m57.5 376v-240c0-20.678-16.822-37.5-37.5-37.5h-20v15h20c12.407 0 22.5 10.094 22.5 22.5v240c0 12.406-10.093 22.5-22.5 22.5h-20v15h20c20.678 0 37.5-16.822 37.5-37.5z"/><path d="m454.5 136v240c0 20.678 16.822 37.5 37.5 37.5h20v-15h-20c-12.407 0-22.5-10.094-22.5-22.5v-240c0-12.406 10.093-22.5 22.5-22.5h20v-15h-20c-20.678 0-37.5 16.822-37.5 37.5z"/><path d="m256 288.657 72.768-73.465c19.661-19.851 19.599-52.085-.139-71.858-9.551-9.568-22.23-14.834-35.714-14.834-.033 0-.067 0-.1 0-13.521.026-26.22 5.344-35.758 14.974l-1.057 1.066-1.057-1.067c-9.538-9.629-22.237-14.946-35.759-14.973-.034 0-.065 0-.099 0-13.483 0-26.164 5.267-35.714 14.834-19.738 19.773-19.8 52.008-.139 71.858zm-62.012-134.726c6.716-6.728 15.626-10.431 25.099-10.431h.069c9.499.019 18.423 3.758 25.13 10.528l11.714 11.828 11.714-11.827c6.707-6.771 15.631-10.511 25.129-10.529h.07c9.471 0 18.383 3.703 25.099 10.432 13.928 13.952 13.972 36.698.098 50.704l-62.11 62.707-62.11-62.707c-13.874-14.006-13.83-36.752.098-50.705z"/></g></svg>