<svg id="Capa_1" enable-background="new 0 0 511.5 511.5" height="512" viewBox="0 0 511.5 511.5" width="512" xmlns="http://www.w3.org/2000/svg"><g id="Outline_33_" fill="#233d91"><path d="m406.184 342.177-92.934-25.402v-36.376c17.479-15.271 28.846-37.365 29.912-62.085 22.652-23.04 35.088-53.39 35.088-85.813v-13.071c0-31.94-12.768-61.957-35.95-84.521-14.444-14.058-32.373-24.448-51.85-30.049l-1.952-.562-10.84 2.758-6.297-6.11-2.583-.27c-4.303-.448-8.687-.676-13.028-.676-67.547 0-122.5 53.575-122.5 119.429v13.071c0 32.423 12.436 62.773 35.088 85.813 1.066 24.721 12.433 46.815 29.912 62.085v36.376l-92.934 25.402c-33.6 9.184-57.066 39.926-57.066 74.758v94.566h15v-94.565c0-28.091 18.925-52.882 46.021-60.289l45.282-12.377c3.003 62.589 27.806 101.012 48.825 122.589 18.135 18.618 36.258 27.982 44.872 31.731v12.911h15v-12.911c8.614-3.749 26.737-13.113 44.872-31.731 21.019-21.577 45.822-60 48.825-122.589l45.282 12.377c27.097 7.407 46.021 32.198 46.021 60.289v94.565h15v-94.565c0-34.832-23.467-65.575-57.066-74.758zm-237.934-201.821v54.637c-12.997-18.093-20-39.709-20-62.493v-13.071c0-57.582 48.225-104.429 107.5-104.429 2.971 0 5.963.121 8.927.359l8.552 8.299 14.994-3.813c16.366 5.037 31.411 13.935 43.614 25.812 20.257 19.716 31.413 45.915 31.413 73.771v13.072c0 22.784-7.003 44.401-20 62.493v-66.537l-5.703-1.407c-16.625-4.103-31.501-13.66-43.019-27.639l-7.741-9.396-4.91 11.141c-12.528 28.43-39.591 44.734-74.247 44.734-12.252 0-21.786-.988-30.004-3.111zm15 74.144v-55.27c7.139 1.124 15.096 1.659 24.38 1.659 36.712 0 66.318-15.788 82.861-43.725 10.867 10.627 23.698 18.398 37.759 22.844v74.492c0 39.977-32.523 72.5-72.5 72.5s-72.5-32.523-72.5-72.5zm30 103.68v-27.219c12.592 7.027 27.085 11.039 42.5 11.039s29.908-4.012 42.5-11.039v27.219l-42.5 24.649zm27.132 33.076-31.002 16.694c-2.162-11.798-3.597-24.174-4.004-36.997zm65.742-20.303c-.407 12.823-1.841 25.199-4.004 36.997l-31.005-16.695zm-92.543 124.88c-27.753-28.807-42.592-67.676-44.181-115.622l21.101-5.767c2.059 46.873 16.888 87.283 29.481 113.663 4.444 9.309 8.875 17.485 12.915 24.396-6.066-4.327-12.706-9.809-19.316-16.67zm42.169 24.776c-10.344-15.315-31.775-50.906-43.106-97.379l43.11-23.213 43.102 23.213c-11.332 46.475-32.764 82.067-43.106 97.379zm42.169-24.776c-6.61 6.861-13.25 12.344-19.315 16.67 4.04-6.912 8.471-15.088 12.915-24.397 12.593-26.38 27.422-66.79 29.481-113.663l21.101 5.767c-1.59 47.947-16.429 86.816-44.182 115.623z"/><path d="m373.25 431.5h15v80h-15z"/><path d="m248.25 425.5h15v16h-15z"/><path d="m248.25 391.5h15v16h-15z"/><path d="m123.25 431.5h15v80h-15z"/></g></svg>