<svg id="Capa_1" enable-background="new 0 0 511.524 511.524" height="512" viewBox="0 0 511.524 511.524" width="512" xmlns="http://www.w3.org/2000/svg"><g id="Outline_11_"><path d="m347.546 34.791-46.284-12.509v-22.282l-45.5 17.961-45.5-17.961v22.282l-46.284 12.509c-16.319 4.411-27.716 19.297-27.716 36.201v180.532h46v260h147v-260h46v-180.532c0-16.904-11.397-31.79-27.716-36.201zm-46.284 27.257v-21.482l12.556 21.345-20.206 14.432 6.27 15.676-29.082 26.887 18.42-61.612zm-15-40v17.952l-22.74-8.976zm-11.045 29.719-19.455 65.074-19.455-65.074 19.455-7.68zm-49.955-29.719 22.74 8.976-22.74 8.976zm-15 18.518v21.482l12.042-4.753 18.42 61.612-29.082-26.887 6.27-15.676-20.206-14.432zm-28 195.958h-31v-165.532c0-10.142 6.838-19.074 16.63-21.721l23.598-6.378-13.673 23.244 21.795 15.568-5.729 14.324 54.379 50.275v71.72c0 12.562-10.594 28.5-22.5 28.5h-28.5v-21h2.5c15.164 0 27.5-12.336 27.5-27.5v-27.5h-30v-56.5h-15zm15-26v-25h15v12.5c0 6.893-5.607 12.5-12.5 12.5zm117 286h-51v-192.5h-15v192.5h-51v-235h28.5c12.437 0 23.227-8.113 30-18.89 6.773 10.777 17.562 18.89 30 18.89h28.5zm0-286h-2.5c-6.893 0-12.5-5.607-12.5-12.5v-12.5h15zm46 26h-31v-122.5h-15v56.5h-30v27.5c0 15.164 12.336 27.5 27.5 27.5h2.5v21h-28.5c-11.906 0-22.5-15.938-22.5-28.5v-71.72l54.379-50.275-5.729-14.324 21.795-15.568-13.673-23.244 23.598 6.378c9.792 2.646 16.63 11.579 16.63 21.721z" fill="#233d91"/></g></svg>