<svg id="Capa_1" enable-background="new 0 0 511 511" height="512" viewBox="0 0 511 511" width="512" xmlns="http://www.w3.org/2000/svg"><g id="Outline_10_"><path d="m420.826 469.894c-.352-1.603-35.332-160.944-52.147-216.564-11.375-37.625-43.343-55.931-55.679-61.75v-28.08c0-31.613 30.722-65.597 31.029-65.932l2.247-2.451-.308-3.312c-.046-.498-1.204-12.323-7.291-24.221-1.687-3.297-3.588-6.275-5.677-8.953v-58.631h-45v42.434c-11.718 1.208-21.992 5.592-32.5 20.656-10.508-15.063-20.782-19.448-32.5-20.656v-42.434h-45v58.631c-2.089 2.677-3.99 5.656-5.677 8.953-6.087 11.898-7.245 23.724-7.291 24.221l-.308 3.312 2.247 2.451c.311.338 31.029 34.216 31.029 65.932v28.08c-12.336 5.819-44.304 24.125-55.679 61.75-16.815 55.62-51.795 214.961-52.147 216.564l-1.037 4.731 3.886 2.892c1.836 1.367 46.328 33.483 162.477 33.483s160.641-32.116 162.478-33.483l3.886-2.892zm-117.826-454.894h15v31.298c-4.569-2.223-9.584-3.592-15-4.075zm-110 0h15v27.222c-5.416.484-10.431 1.853-15 4.075zm-12.589 75.164c1.568-8.775 8.086-33.164 32.089-33.164 15.833 0 23.994 1.022 36.396 24.056l6.604 12.264 6.604-12.264c12.402-23.034 20.563-24.056 36.396-24.056 24.012 0 30.526 24.408 32.09 33.163-7.315 8.667-28.831 36.377-32.144 65.837h-85.892c-3.313-29.459-24.826-57.168-32.143-65.836zm117.589 80.836v18h-85v-18zm61.317 313.798c-5.364-25.083-23.389-108.224-34.156-143.839-9.768-32.311-17.916-43.038-18.813-44.155l-11.751 9.322c.072.094 7.314 9.765 16.206 39.174 10.477 34.656 28.59 118.114 33.872 142.772-22.757 4.529-52.161 7.928-89.175 7.928-37.015 0-66.419-3.399-89.175-7.928 5.282-24.657 23.395-108.116 33.872-142.772 8.891-29.409 16.133-39.08 16.15-39.104l-11.695-9.393c-.897 1.117-9.045 11.845-18.813 44.155-10.767 35.615-28.793 118.758-34.156 143.84-24.609-6.141-39.235-13.228-45.715-16.872 6.173-27.925 35.773-160.845 50.711-210.256 10.593-35.037 43.729-50.844 50.298-53.67h97.045c6.602 2.842 39.711 18.65 50.299 53.67 14.938 49.412 44.538 182.329 50.711 210.254-6.497 3.654-21.124 10.737-45.715 16.874z" fill="#233d91"/></g></svg>