<svg id="Capa_1" enable-background="new 0 0 512 512" height="512" viewBox="0 0 512 512" width="512" xmlns="http://www.w3.org/2000/svg"><g id="Outline_37_" fill="#233d91"><path d="m156 220.5h15v15h-15z"/><path d="m51 220.5h90v15h-90z"/><path d="m51 300.5h90v15h-90z"/><path d="m156 300.5h15v15h-15z"/><path d="m81 260.5h90v15h-90z"/><path d="m51 260.5h15v15h-15z"/><path d="m81 340.5h90v15h-90z"/><path d="m51 340.5h15v15h-15z"/><path d="m156 380.5h15v15h-15z"/><path d="m51 380.5h90v15h-90z"/><path d="m508.423 496.5c-20.552-23.892-34.975-48.451-42.224-62h8.801v-15h-16.193c-4.185-9.512-14.282-34.701-20.031-68h11.224v-15h-13.841c-10.749-57.304-13.632-161.615-13.662-162.699l-.193-7.301h-19.804v-26.5h-15v26.5h-19.804l-.193 7.301c-.029 1.084-2.91 105.383-13.662 162.699h-13.841v15h11.224c-5.749 33.302-15.848 58.492-20.031 68h-16.193v15h8.801c-7.25 13.55-21.673 38.109-42.224 62h-19.077v-19.048c11.528-3.274 20-13.889 20-26.452v-39c0-15.163-12.337-27.5-27.5-27.5-15.164 0-27.5 12.337-27.5 27.5v39c0 12.563 8.472 23.178 20 26.452v19.048h-39v-320h-40v-40h-25v-46.746l-65-39v85.746h-25v40h-40v320h-13.5v15h512v-15zm-414.923-419.254 35 21v38.254h-35zm-25 74.254h85v25h-85zm35 345h-25v-55h25zm40 0h-25v-55h25zm50 0h-35v-70h-95v70h-35v-305h165zm49-45.5v-39c0-6.893 5.607-12.5 12.5-12.5s12.5 5.607 12.5 12.5v39c0 6.893-5.607 12.5-12.5 12.5s-12.5-5.607-12.5-12.5zm139.771-269.5h25.457c.355 10.481 1.159 31.002 2.661 55h-30.78c1.504-23.998 2.307-44.519 2.662-55zm-3.665 70h32.788c.817 11.429 1.79 23.3 2.941 35h-38.67c1.151-11.7 2.124-23.571 2.941-35zm-4.533 50h41.854c1.426 12.452 3.076 24.381 4.981 35h-51.816c1.905-10.619 3.555-22.548 4.981-35zm-7.643 50h57.141c5.032 30.718 13.571 54.879 18.923 68h-24.668l-11.999-47h-21.652l-11.999 47h-24.668c5.35-13.121 13.89-37.282 18.922-68zm35.915 68h-14.689l7.344-28.766zm-44.09 77c3.484-17.096 18.635-30 36.745-30s33.261 12.904 36.745 30zm88.701 0c-3.652-25.407-25.554-45-51.956-45s-48.304 19.593-51.956 45h-42.008c21.264-26.752 34.736-52.06 39.676-62h108.575c4.94 9.94 18.412 35.248 39.676 62z"/><path d="m235 115.7 51.678-51.878c14.446-14.503 14.4-38.054-.102-52.5-14.197-14.141-37.066-14.395-51.576-.795-6.883-6.458-15.819-10.008-25.305-10.027-.025 0-.049 0-.074 0-9.888 0-19.189 3.842-26.197 10.822-7.025 6.998-10.905 16.312-10.924 26.229-.019 9.916 3.824 19.246 10.822 26.271zm-40.99-93.751c4.176-4.16 9.718-6.449 15.612-6.449h.044c5.909.012 11.46 2.323 15.63 6.51l9.704 9.742 9.703-9.742c8.612-8.642 22.646-8.667 31.287-.061 4.187 4.17 6.498 9.722 6.51 15.631s-2.279 11.47-6.449 15.656l-41.051 41.21-41.051-41.21c-4.17-4.187-6.46-9.747-6.449-15.656.012-5.909 2.324-11.46 6.51-15.631z"/><path d="m274.047 113.967c-11.346 11.303-11.382 29.728-.08 41.074l39.033 39.185 39.033-39.185c11.302-11.347 11.266-29.771-.08-41.074-10.66-10.619-27.571-11.229-38.953-1.851-11.379-9.377-28.292-8.768-38.953 1.851zm38.953 19.206 8.506-8.54c5.465-5.486 14.375-5.506 19.861-.039 5.486 5.465 5.504 14.375.039 19.861l-28.406 28.517-28.406-28.517c-5.465-5.486-5.447-14.396.039-19.861 2.736-2.726 6.323-4.087 9.911-4.087 3.604 0 7.211 1.376 9.95 4.126z"/><path d="m268.002 221.024c-4.586-3.571-10.192-5.513-16.1-5.524-.018 0-.035 0-.052 0-7.019 0-13.621 2.727-18.595 7.682-10.294 10.254-10.327 26.972-.072 37.267l34.817 34.952 34.819-34.954c10.253-10.295 10.22-27.012-.073-37.266-9.489-9.452-24.435-10.162-34.744-2.157zm16.147 9.476c3.023 0 5.868 1.175 8.011 3.309 4.434 4.417 4.447 11.619.031 16.054l-24.191 24.284-24.19-24.285c-4.417-4.435-4.404-11.637.031-16.054 2.143-2.134 4.986-3.309 8.01-3.309h.022c3.032.006 5.88 1.191 8.02 3.34l8.107 8.139 8.107-8.139c2.14-2.148 4.987-3.334 8.02-3.34.008.001.015.001.022.001z"/></g></svg>