<svg id="Capa_1" enable-background="new 0 0 512 512" height="512" viewBox="0 0 512 512" width="512" xmlns="http://www.w3.org/2000/svg"><g id="Outline_15_" fill="#233d91"><path d="m292.956 405.948c3.521-6.188 5.544-13.334 5.544-20.948v-38.076l12.106-48.424h-109.212l12.106 48.424v38.076c0 7.614 2.023 14.76 5.544 20.948-15.357 6.481-29.012 17.008-39.147 30.355-12.689 16.711-19.397 36.662-19.397 57.697v18h15v-18c0-34.085 21.935-64.738 53.817-75.953 7.3 5.906 16.583 9.453 26.683 9.453s19.383-3.547 26.683-9.453c31.881 11.215 53.817 41.867 53.817 75.953v18h15v-18c0-21.035-6.707-40.986-19.396-57.697-10.136-13.347-23.791-23.874-39.148-30.355zm-9.456-20.948c0 15.164-12.336 27.5-27.5 27.5s-27.5-12.336-27.5-27.5v-31.5h55zm1.644-46.5h-58.288l-6.25-25h70.788z"/><path d="m298.5 476h15v36h-15z"/><path d="m198.5 476h15v36h-15z"/><path d="m358.5 208.5v-62.135l-40-20v-30.184l-55-40v-23.681h15.5v-15h-15.5v-17.5h-15v17.5h-15.5v15h15.5v23.681l-55 40v30.184l-40 20v62.135zm-40-65.365 25 12.5v37.865h-25zm-50 50.365h-25v-33.5c0-6.893 5.607-12.5 12.5-12.5s12.5 5.607 12.5 12.5zm-60-89.681 47.5-34.545 47.5 34.545v89.681h-20v-33.5c0-15.164-12.336-27.5-27.5-27.5s-27.5 12.336-27.5 27.5v33.5h-20zm-40 51.816 25-12.5v50.365h-25z"/><path d="m85.067 228.691 19.269-14.274-14.506-31.917h-43.66l-14.507 31.917 19.269 14.274c-28.982 7.58-50.432 33.984-50.432 65.309 0 37.22 30.28 67.5 67.5 67.5s67.5-30.28 67.5-67.5c0-31.325-21.45-57.729-50.433-65.309zm-34.73-19.108 5.493-12.083h24.34l5.493 12.083-17.663 13.084zm17.663 136.917c-28.949 0-52.5-23.551-52.5-52.5s23.551-52.5 52.5-52.5 52.5 23.551 52.5 52.5-23.551 52.5-52.5 52.5z"/><path d="m511.5 254v-67.5h-95v67.5c0 23.639 17.36 43.295 40 46.902v45.598h-32.5v15h80v-15h-32.5v-45.598c22.64-3.607 40-23.263 40-46.902zm-80-52.5h65v25h-65zm32.5 85c-17.92 0-32.5-14.58-32.5-32.5v-12.5h65v12.5c0 17.92-14.58 32.5-32.5 32.5z"/><path d="m248.5 223h15v60h-15z"/><path d="m162.5 311.982h15v56.036h-15z" transform="matrix(.571 -.821 .821 .571 -206.189 285.392)"/><path d="m310.174 320.5h97.652v14.999h-97.652z" transform="matrix(.819 -.574 .574 .819 -123.2 265.162)"/></g></svg>