<svg id="Capa_1" enable-background="new 0 0 511.5 511.5" height="512" viewBox="0 0 511.5 511.5" width="512" xmlns="http://www.w3.org/2000/svg"><g id="Outline_1_" fill="#233d91"><path d="m477.373 347.89-67.523-19.045v-28.344c19.432-12.102 32.4-33.65 32.4-58.179v-29.822c0-37.771-30.729-68.5-68.5-68.5s-68.5 30.729-68.5 68.5v29.822c0 24.529 12.968 46.078 32.4 58.179v28.344l-67.523 19.045c-5.467 1.542-10.477 4.049-14.877 7.295v-83.685c0-58.738-40.599-110.034-97.237-123.859-3.868-13.627-16.414-23.641-31.263-23.641-15.048 0-27.737 10.283-31.419 24.189-25.953 6.842-49.422 21.96-66.509 42.958-18.425 22.643-28.572 51.18-28.572 80.353v175.268 64.732h15v-26.5h33v26.5h15v-34c0-12.407 12.336-22.5 27.5-22.5s27.5 10.093 27.5 22.5v7.5h19v-7.5c0-12.407 12.336-22.5 27.5-22.5s27.5 10.093 27.5 22.5v34h15v-26.5h29v26.5h15v-118.856c0-14.039 9.437-26.506 22.949-30.317l30.995-8.742-18.747 27.773 21.604 15.432-8.461 15.982 66.66 69.736v28.992h15v-28.992l66.66-69.736-8.461-15.982 21.604-15.432-18.747-27.773 30.995 8.742c13.512 3.811 22.949 16.278 22.949 30.317v118.856h15v-118.856c0-20.725-13.931-39.128-33.877-44.754zm-350.623-208.89c9.649 0 17.5 7.851 17.5 17.5s-7.851 17.5-17.5 17.5-17.5-7.851-17.5-17.5 7.851-17.5 17.5-17.5zm1 50c45.491 0 82.5 37.009 82.5 82.5v50c0 17.92-14.58 32.5-32.5 32.5h-10.5v-.958c13.043-11.166 21.333-27.733 21.333-46.209 0-28.397-23.103-51.5-51.5-51.5h-70.166v51.5c0 18.476 8.29 35.042 21.333 46.208v.959h-10.5c-17.92 0-32.5-14.58-32.5-32.5v-50c0-45.491 37.009-82.5 82.5-82.5zm0 163.667c-25.272 0-45.833-20.561-45.833-45.833v-36.5h55.167c20.126 0 36.5 16.374 36.5 36.5-.001 25.272-20.562 45.833-45.834 45.833zm-112.5-81.167c0-49.463 33.106-93.407 79.85-107.643 1.186 5.101 3.572 9.745 6.85 13.615-41.281 11.34-71.7 49.196-71.7 94.029v50c0 26.191 21.309 47.5 47.5 47.5h10.5v13.797l-55.812 19.006c-6.548 2.229-12.362 5.793-17.188 10.323v-140.627zm221 198.5h-29.855c-3.949-17.096-21.12-30-41.645-30-15.845 0-29.692 7.69-37 19.063-7.308-11.373-21.155-19.063-37-19.063-20.524 0-37.696 12.904-41.645 30h-33.855v-23.232c0-13.916 8.851-26.279 22.023-30.765l65.977-22.467v-31.039c7.501 3.314 15.786 5.17 24.5 5.17s16.999-1.855 24.5-5.17v31.042l65.971 22.46c7.663 2.611 14.154 8.092 18.029 15.164zm4-96.136c-2.577 5.799-4 12.17-4 18.78v16.17c-3.982-2.998-8.428-5.391-13.193-7.014l-55.807-19v-13.8h10.5c26.191 0 47.5-21.309 47.5-47.5v-50c0-45.422-31.222-83.687-73.331-94.466 3.205-3.922 5.511-8.603 6.608-13.729 47.832 13.607 81.722 57.787 81.722 108.195v102.364zm173.393-28.364-6.342 17.758-19.038-11.022 15.258-9.591zm-39.893-1.858-21.1-13.263v-22.896c6.651 2.159 13.739 3.34 21.1 3.34s14.449-1.181 21.1-3.34v22.896zm0-184.642c29.5 0 53.5 24 53.5 53.5v19.273l-25.368-33.551h-79.682c6.264-22.588 26.995-39.222 51.55-39.222zm-53.5 83.322v-29.1h74.168l31.369 41.487c-5.605 23.544-26.801 41.113-52.037 41.113-29.5 0-53.5-24-53.5-53.5zm23.729 100.323 15.258 9.591-19.038 11.022-6.342-17.758zm-26.069 67.583 9.539-18.018-20.396-14.568 14.62-21.659 33.174 92.888zm55.84 46.973-28.421-79.58 28.262-16.363.159.1.159-.1 28.262 16.363zm46.302-64.991 9.539 18.018-36.937 38.642 33.174-92.888 14.62 21.659z"/><path d="m291.25 441.5h15v70h-15z"/><path d="m441.25 441.5h15v70h-15z"/><path d="m255.75 186.138 85.402-85.902c22.822-22.955 22.75-60.233-.161-83.098-11.074-11.055-25.774-17.138-41.405-17.138-.038 0-.078 0-.116 0-15.674.03-30.396 6.173-41.456 17.298l-2.264 2.277-2.264-2.277c-11.06-11.125-25.783-17.268-41.457-17.298-.04 0-.077 0-.116 0-15.629 0-30.331 6.084-41.404 17.137-22.911 22.866-22.983 60.144-.162 83.098zm-74.645-158.384c8.242-8.227 19.18-12.754 30.81-12.754h.086c11.662.022 22.617 4.594 30.848 12.874l12.901 12.977 12.901-12.977c8.231-8.279 19.186-12.851 30.847-12.874h.087c11.628 0 22.567 4.528 30.81 12.754 17.067 17.034 17.122 44.805.12 61.906l-74.765 75.202-74.765-75.202c-17.002-17.101-16.947-44.871.12-61.906z"/><path d="m366.25 382.5h15v16h-15z"/></g></svg>