<svg id="Capa_1" enable-background="new 0 0 511 511" height="512" viewBox="0 0 511 511" width="512" xmlns="http://www.w3.org/2000/svg"><g id="Outline_31_"><path d="m473 456v-92.5c0-20.678-16.822-37.5-37.5-37.5h-12.5v-82.5c0-20.678-16.822-37.5-37.5-37.5h-22.5v-66.5c0-15.163-12.336-27.5-27.5-27.5h-39.926l43.821-44.034c15.489-15.564 15.44-40.842-.11-56.347-7.515-7.495-17.491-11.619-28.098-11.619-.026 0-.054 0-.08 0-10.39.021-20.164 3.995-27.607 11.208-7.443-7.213-17.218-11.188-27.607-11.208-.026 0-.052 0-.079 0-10.561 0-20.495 4.091-27.999 11.524-7.482-7.41-17.384-11.504-27.922-11.524-.027 0-.053 0-.079 0-10.607 0-20.584 4.124-28.1 11.618-15.551 15.505-15.6 40.782-.109 56.348l43.821 44.034h-39.926c-15.164 0-27.5 12.337-27.5 27.5v66.5h-22.5c-20.678 0-37.5 16.822-37.5 37.5v82.5h-12.5c-20.678 0-37.5 16.822-37.5 37.5v92.5h-38v27.5c0 15.164 12.336 27.5 27.5 27.5h456c15.164 0 27.5-12.336 27.5-27.5v-27.5zm-234.694-433.76c4.684-4.67 10.9-7.24 17.509-7.24h.049c6.627.013 12.854 2.608 17.531 7.309l10.105 10.155 10.105-10.155c4.678-4.7 10.904-7.296 17.531-7.309 6.66-.038 12.863 2.559 17.559 7.24 9.699 9.671 9.729 25.437.068 35.146l-45.263 45.481-45.263-45.481c-9.661-9.709-9.631-25.475.069-35.146zm33.12 89.76h-31.852l15.926-16.004zm-89.189-54.614c-9.662-9.709-9.631-25.475.068-35.146 4.684-4.67 10.9-7.24 17.509-7.24h.05c6.627.013 12.854 2.608 17.531 7.309l1.835 1.844c-6.191 14.506-3.411 31.97 8.375 43.813l17.314 17.398-17.419 17.503zm-19.237 82.114c0-6.893 5.607-12.5 12.5-12.5h160c6.893 0 12.5 5.607 12.5 12.5v8.862c-6.115-1.611-12.593-2.362-20-2.362-20.055 0-30.583 5.808-39.872 10.932-8.82 4.866-16.438 9.068-32.638 9.068-16.187 0-23.8-4.201-32.616-9.065-9.288-5.125-19.816-10.935-39.874-10.935-7.407 0-13.885.751-20 2.362zm0 24.525c4.736-1.673 10.93-3.025 20-3.025 16.194 0 23.81 4.202 32.627 9.067 9.287 5.125 19.812 10.933 39.863 10.933 20.062 0 30.593-5.809 39.883-10.934 8.819-4.865 16.435-9.066 32.627-9.066 9.07 0 15.264 1.352 20 3.025v41.975h-185zm-60 79.475c0-12.406 10.093-22.5 22.5-22.5h260c12.407 0 22.5 10.094 22.5 22.5v22.209c-13.371-1.05-21.08-4.883-29.148-8.917-10.118-5.059-21.585-10.792-43.357-10.792-21.771 0-33.238 5.733-43.354 10.792-9.471 4.735-18.417 9.208-36.646 9.208s-27.175-4.473-36.646-9.208c-10.117-5.059-21.583-10.792-43.354-10.792-21.77 0-33.235 5.733-43.352 10.792-8.067 4.034-15.775 7.867-29.143 8.917zm0 37.256c17.036-1.142 26.966-6.104 35.852-10.548 9.47-4.735 18.415-9.208 36.643-9.208 18.229 0 27.175 4.473 36.646 9.208 10.116 5.059 21.583 10.792 43.353 10.792 21.771 0 33.238-5.733 43.354-10.792 9.471-4.735 18.417-9.208 36.646-9.208 18.231 0 27.177 4.473 36.648 9.208 8.887 4.443 18.818 9.406 35.856 10.548v45.244h-304.998zm-50 82.744c0-12.406 10.093-22.5 22.5-22.5h360c12.407 0 22.5 10.094 22.5 22.5v12.821c-14.757 1.275-23.445 6.223-31.223 10.667-8.463 4.836-15.772 9.012-31.281 9.012s-22.818-4.176-31.281-9.012c-9.014-5.15-19.23-10.988-38.723-10.988-19.492 0-29.708 5.838-38.721 10.988-8.462 4.836-15.771 9.012-31.279 9.012s-22.816-4.176-31.278-9.012c-9.013-5.15-19.229-10.988-38.721-10.988-19.491 0-29.706 5.838-38.719 10.988-8.462 4.836-15.77 9.012-31.276 9.012-15.508 0-22.816-4.176-31.278-9.012-7.777-4.444-16.465-9.391-31.22-10.667zm0 27.878c10.618 1.125 16.813 4.653 23.778 8.633 9.013 5.15 19.229 10.988 38.72 10.988s29.706-5.838 38.719-10.988c8.462-4.836 15.77-9.012 31.276-9.012 15.508 0 22.816 4.176 31.278 9.012 9.014 5.151 19.229 10.989 38.721 10.989s29.708-5.838 38.722-10.988c8.462-4.836 15.771-9.012 31.279-9.012 15.509 0 22.818 4.176 31.281 9.012 9.014 5.15 19.23 10.988 38.723 10.988s29.709-5.838 38.723-10.988c6.966-3.981 13.162-7.508 23.781-8.633v64.621h-405.001zm443 92.122c0 6.893-5.607 12.5-12.5 12.5h-456c-6.893 0-12.5-5.607-12.5-12.5v-12.5h481z" fill="#233d91"/></g></svg>