<svg id="Capa_1" enable-background="new 0 0 511.732 511.732" height="512" viewBox="0 0 511.732 511.732" width="512" xmlns="http://www.w3.org/2000/svg"><g id="Outline_41_" fill="#233d91"><path d="m506.818 367.87c-16.292-22.808-47.133-29.886-71.738-16.464l-83.527 45.56c-3.432-13.677-15.826-23.837-30.553-23.837h-.123l148.326-148.897c51.12-51.32 50.958-134.668-.361-185.796-24.8-24.705-57.715-38.298-92.712-38.298-.086 0-.175 0-.261 0-35.094.067-68.059 13.797-92.823 38.658l-13.046 13.096-13.046-13.096c-24.764-24.861-57.729-38.591-92.823-38.658-.088 0-.173 0-.261 0-34.995 0-67.913 13.595-92.713 38.298-51.318 51.128-51.48 134.476-.36 185.796l98.519 98.896c-38.055 1.118-74.649 18.225-83.085 22.424h-23.731v-19.413h-62.5v15h47.5v115h-47.5v15h62.5v-19.479h43.843l187.053 59.935 218.337-136.841zm-425.395-154.224c-45.283-45.461-45.139-119.293.32-164.583 21.969-21.883 51.125-33.925 82.127-33.925h.231c31.087.06 60.289 12.222 82.225 34.244l23.674 23.764 23.673-23.764c21.937-22.022 51.138-34.185 82.225-34.244h.231c31 0 60.159 12.043 82.126 33.925 45.459 45.29 45.603 119.122.32 164.583l-158.87 159.483h-46.68c-4.008-8.097-12.366-23.519-20.568-29.58-11.882-10.741-25.913-16.492-40.522-18.968zm209.912 281.537-182.648-58.523h-46.187v-76.109l27.373-.001 1.632-.854c.868-.453 87.303-44.903 131.158-4.779l.364.333.404.283c5.171 3.61 13.668 18.678 18.05 28.224l2.007 4.372h77.512c9.098 0 16.5 7.402 16.5 16.5s-7.402 16.5-16.5 16.5h-102v15h102c13.965 0 25.83-9.138 29.947-21.746l91.315-49.808c15.707-8.565 34.894-5.688 47.409 6.304z"/><path d="m270 266.629c11.686 9.682 26.674 15.51 43 15.51 37.22 0 67.5-30.28 67.5-67.5 0-31.325-21.45-57.729-50.432-65.309l19.269-14.274-14.507-31.917h-43.66l-14.507 31.917 19.269 14.274c-9.651 2.524-18.466 7.133-25.932 13.319-7.466-6.186-16.282-10.795-25.932-13.319l19.269-14.274-14.507-31.917h-43.66l-14.507 31.917 19.269 14.274c-28.982 7.58-50.432 33.984-50.432 65.309 0 37.22 30.28 67.5 67.5 67.5 16.326 0 31.314-5.828 43-15.51zm25.337-136.407 5.493-12.083h24.341l5.493 12.083-17.664 13.084zm-14.884 43.268c8.954-7.097 20.26-11.352 32.547-11.352 28.949 0 52.5 23.552 52.5 52.5s-23.551 52.5-52.5 52.5c-12.287 0-23.592-4.254-32.547-11.352 8.796-11.4 14.047-25.669 14.047-41.148s-5.25-29.748-14.047-41.148zm-10.453 11.083c5.978 8.523 9.5 18.888 9.5 30.066s-3.522 21.542-9.5 30.066c-5.978-8.523-9.5-18.888-9.5-30.066s3.522-21.543 9.5-30.066zm-60.663-54.351 5.493-12.083h24.341l5.493 12.083-17.664 13.084zm-34.837 84.417c0-28.948 23.551-52.5 52.5-52.5 12.287 0 23.592 4.254 32.547 11.352-8.796 11.4-14.047 25.669-14.047 41.148s5.25 29.749 14.047 41.148c-8.954 7.097-20.26 11.352-32.547 11.352-28.949 0-52.5-23.552-52.5-52.5z"/></g></svg>