<svg id="Capa_1" enable-background="new 0 0 511 511" height="512" viewBox="0 0 511 511" width="512" xmlns="http://www.w3.org/2000/svg"><g id="Outline_8_" fill="#233d91"><path d="m483.5 36h-15.5v-36h-55v36h-37.5v-36h-55v36h-37.5v-36h-55v36h-37.5v-36h-55v36h-37.5v-36h-55v36h-15.5c-15.164 0-27.5 12.336-27.5 27.5v420c0 15.164 12.336 27.5 27.5 27.5h456c15.164 0 27.5-12.336 27.5-27.5v-420c0-15.164-12.336-27.5-27.5-27.5zm-55.5-21h25v57h-25zm-92.5 0h25v57h-25zm-92.5 0h25v57h-25zm-92.5 0h25v57h-25zm-92.5 0h25v57h-25zm438 468.5c0 6.893-5.607 12.5-12.5 12.5h-456c-6.893 0-12.5-5.607-12.5-12.5v-312.5h481zm0-327.5h-481v-92.5c0-6.893 5.607-12.5 12.5-12.5h15.5v36h55v-36h37.5v36h55v-36h37.5v36h55v-36h37.5v36h55v-36h37.5v36h55v-36h15.5c6.893 0 12.5 5.607 12.5 12.5z"/><path d="m278 116h15v15h-15z"/><path d="m248 116h15v15h-15z"/><path d="m218 116h15v15h-15z"/><path d="m185.5 481c25.135 0 49.238-7.233 70.046-20.959 20.097 13.24 44.139 20.959 69.954 20.959 70.304 0 127.5-57.196 127.5-127.5 0-26.536-8.074-51.973-23.351-73.562-12.734-17.998-29.635-32.19-49.301-41.548 10.712-12.476 10.146-31.35-1.688-43.137-5.991-5.968-13.942-9.252-22.396-9.252-.021 0-.042 0-.063 0-7.688.015-14.953 2.744-20.701 7.731-5.748-4.988-13.014-7.717-20.701-7.732-.021 0-.042 0-.063 0-8.453 0-16.405 3.285-22.396 9.252-9.978 9.939-11.945 24.917-5.897 36.85-10.941 3.509-21.311 8.48-30.978 14.857-9.583-6.3-19.984-11.317-30.914-14.841 6.057-11.935 4.093-26.922-5.889-36.866-5.991-5.968-13.942-9.252-22.396-9.252-.021 0-.042 0-.063 0-7.688.015-14.953 2.744-20.701 7.731-5.748-4.988-13.014-7.717-20.701-7.732-.021 0-.042 0-.063 0-8.453 0-16.405 3.285-22.396 9.252-11.834 11.787-12.399 30.661-1.688 43.137-19.665 9.358-36.567 23.551-49.301 41.548-15.279 21.591-23.353 47.028-23.353 73.564 0 70.304 57.196 127.5 127.5 127.5zm252.5-127.5c0 62.033-50.468 112.5-112.5 112.5s-112.5-50.467-112.5-112.5c0-23.833 7.643-47.094 21.604-66.249 4.059 3.016 7.824 6.404 11.263 10.099-11.549 16.372-17.867 36.069-17.867 56.15 0 53.762 43.738 97.5 97.5 97.5s97.5-43.738 97.5-97.5c0-41.816-26.844-78.631-65.453-92.082l11.587-11.632c41.382 17.435 68.866 58.516 68.866 103.714zm-216.219 74.069c-11.25 5.532-23.641 8.431-36.281 8.431-45.49 0-82.5-37.009-82.5-82.5 0-37.888 26.038-70.927 62.456-80.032l10.044 10.083 12.441-12.489c12.094.354 23.544 3.308 33.802 8.346-15.364 21.518-23.743 47.498-23.743 74.092 0 27.6 8.818 53.177 23.781 74.069zm33.724-117.649c7.907 12.656 12.495 27.589 12.495 43.58 0 15.41-4.395 30.558-12.505 43.58-7.907-12.656-12.495-27.589-12.495-43.58 0-15.41 4.395-30.558 12.505-43.58zm33.752 117.672c15.364-21.518 23.743-47.498 23.743-74.092 0-26.56-8.384-52.582-23.737-74.092 10.507-5.158 22.009-8.015 33.777-8.365l12.46 12.508 10.044-10.083c36.418 9.105 62.456 42.144 62.456 80.032 0 45.491-37.01 82.5-82.5 82.5-12.997 0-25.296-3.031-36.243-8.408zm13.668-221.713c3.16-3.147 7.353-4.879 11.812-4.879h.033c4.471.009 8.67 1.758 11.825 4.926l8.905 8.939 8.905-8.939c3.155-3.167 7.354-4.917 11.825-4.925h.033c4.459 0 8.652 1.732 11.812 4.879 6.538 6.513 6.559 17.131.046 23.669l-32.621 32.747-32.621-32.748c-6.513-6.538-6.492-17.156.046-23.669zm-6.123 38.823 12.597 12.646c-10.404 1.743-20.465 5.164-29.799 10.163-3.544-3.871-7.313-7.511-11.286-10.904 8.916-5.285 18.453-9.272 28.488-11.905zm1.198 108.798c0 23.833-7.643 47.094-21.604 66.249-4.059-3.016-7.824-6.404-11.263-10.099 11.549-16.372 17.867-36.069 17.867-56.15 0-48.274-35.268-88.459-81.389-96.161l12.581-12.63c48.798 12.853 83.808 57.95 83.808 108.791zm-155.075-147.621c3.16-3.147 7.353-4.879 11.812-4.879h.033c4.471.009 8.67 1.758 11.825 4.926l8.905 8.939 8.905-8.939c3.155-3.167 7.354-4.917 11.825-4.925h.033c4.459 0 8.652 1.732 11.812 4.879 6.538 6.513 6.559 17.131.046 23.669l-32.621 32.747-32.621-32.748c-6.513-6.538-6.492-17.156.046-23.669zm-1.059 43.907 11.587 11.632c-38.609 13.451-65.453 50.266-65.453 92.082 0 53.762 43.738 97.5 97.5 97.5 16.087 0 31.837-3.973 45.93-11.528 3.53 3.859 7.296 7.499 11.271 10.902-17.27 10.241-36.848 15.626-57.201 15.626-62.032 0-112.5-50.467-112.5-112.5 0-45.198 27.484-86.279 68.866-103.714z"/></g></svg>