<svg id="Capa_1" enable-background="new 0 0 511 511" height="512" viewBox="0 0 511 511" width="512" xmlns="http://www.w3.org/2000/svg"><g id="Outline_16_" fill="#233d91"><path d="m430.5 0h-190c-20.678 0-37.5 16.822-37.5 37.5v62.5h-122.5c-20.678 0-37.5 16.822-37.5 37.5v174c0 20.678 16.822 37.5 37.5 37.5h122.5v124.5c0 20.678 16.822 37.5 37.5 37.5h190c20.678 0 37.5-16.822 37.5-37.5v-436c0-20.678-16.822-37.5-37.5-37.5zm-218.793 334h-131.207c-12.407 0-22.5-10.093-22.5-22.5v-174c0-12.407 10.093-22.5 22.5-22.5h280c12.407 0 22.5 10.093 22.5 22.5v174c0 12.407-10.093 22.5-22.5 22.5h-48.5v33.125zm241.293 139.5c0 12.407-10.093 22.5-22.5 22.5h-190c-12.407 0-22.5-10.093-22.5-22.5v-52.5h235zm0-67.5h-235v-54.124l109 36v-38.876h33.5c20.678 0 37.5-16.822 37.5-37.5v-174c0-20.678-16.822-37.5-37.5-37.5h-142.5v-25h235zm0-346h-235v-22.5c0-12.407 10.093-22.5 22.5-22.5h190c12.407 0 22.5 10.093 22.5 22.5z"/><path d="m358 436h-45v45h45zm-15 30h-15v-15h15z"/><path d="m310.5 30h50v15h-50z"/><path d="m375.5 30h15v15h-15z"/><path d="m280.5 30h15v15h-15z"/><path d="m280.567 181.191 19.269-14.274-14.506-31.917h-43.66l-14.507 31.917 19.269 14.274c-9.651 2.524-18.466 7.133-25.933 13.319-7.466-6.186-16.282-10.795-25.933-13.319l19.269-14.274-14.505-31.917h-43.66l-14.507 31.917 19.269 14.274c-28.982 7.58-50.432 33.984-50.432 65.309 0 37.22 30.28 67.5 67.5 67.5 16.326 0 31.314-5.828 43-15.51 11.686 9.682 26.674 15.51 43 15.51 37.22 0 67.5-30.28 67.5-67.5 0-31.325-21.45-57.729-50.433-65.309zm-34.73-19.108 5.493-12.083h24.341l5.493 12.083-17.664 13.084zm-86 0 5.493-12.083h24.341l5.493 12.083-17.664 13.084zm50.21 125.565c-8.955 7.098-20.26 11.352-32.547 11.352-28.949 0-52.5-23.551-52.5-52.5s23.551-52.5 52.5-52.5c12.287 0 23.592 4.254 32.547 11.352-8.797 11.399-14.047 25.668-14.047 41.148s5.25 29.749 14.047 41.148zm10.453-11.082c-5.978-8.523-9.5-18.888-9.5-30.066s3.522-21.543 9.5-30.066c5.978 8.523 9.5 18.888 9.5 30.066s-3.522 21.543-9.5 30.066zm43 22.434c-12.287 0-23.592-4.254-32.547-11.352 8.797-11.399 14.047-25.668 14.047-41.148s-5.25-29.749-14.047-41.148c8.955-7.098 20.26-11.352 32.547-11.352 28.949 0 52.5 23.551 52.5 52.5s-23.551 52.5-52.5 52.5z"/></g></svg>