<svg id="Capa_1" enable-background="new 0 0 510.976 510.976" height="512" viewBox="0 0 510.976 510.976" width="512" xmlns="http://www.w3.org/2000/svg"><g id="Outline_44_"><path d="m372.944 45.976c-.443-12.132-5.389-23.468-14.057-32.078-18.707-18.582-49.085-18.522-67.718.131l-.681.682-.68-.682c-18.633-18.652-49.012-18.714-67.719-.131-.405.402-.792.818-1.181 1.232l-1.1-1.101c-18.633-18.652-49.011-18.714-67.719-.131-8.668 8.61-13.614 19.946-14.057 32.078h-110.044v465h455v-465zm-1.814 15h86.251l-15 15h-78.629c3.351-4.55 5.833-9.619 7.378-15zm-138.469-36.436c6.411-6.37 14.815-9.552 23.222-9.552 8.446 0 16.895 3.216 23.313 9.642l11.292 11.303 11.292-11.303c12.805-12.82 33.681-12.858 46.536-.09 6.22 6.179 9.655 14.401 9.672 23.153s-3.386 16.988-9.582 23.19l-57.918 57.979-57.918-57.978c-6.196-6.202-9.599-14.438-9.582-23.19s3.452-16.975 9.673-23.154zm-70 0c12.853-12.771 33.728-12.731 46.535.09l3.157 3.161c-2.84 6.154-4.352 12.896-4.365 19.874-.024 12.767 4.937 24.778 13.971 33.821l22.928 22.953-24.399 24.425-57.918-57.98c-6.196-6.202-9.599-14.438-9.582-23.19s3.452-16.975 9.673-23.154zm-1.222 66.436 59.049 59.112 35-35.037 35 35.037 59.049-59.112h88.451v235.235c-3.625-2.734-7.779-4.837-12.32-6.119l-50.68-14.294v-19.92c13.872-9.458 23-25.383 23-43.402v-22c0-28.948-23.552-52.5-52.5-52.5s-52.5 23.552-52.5 52.5v22c0 18.019 9.128 33.944 23 43.402v19.92l-50.68 14.294c-15.529 4.381-26.533 18.365-27.277 34.364-3.113-2.341-6.625-4.224-10.454-5.527l-40.589-13.822v-6.131h.5c20.678 0 37.5-16.822 37.5-37.5v-32c0-38.322-31.178-69.5-69.5-69.5s-69.5 31.178-69.5 69.5v32c0 20.678 16.822 37.5 37.5 37.5h.5v6.131l-40.588 13.822c-3.812 1.298-7.31 3.168-10.412 5.494v-263.447zm249.549 309v-26.5h-15v92.5h-101v-92.5h-15v26.5h-27v-15.549-28.242c0-10.028 6.741-18.934 16.393-21.655l51.301-14.469c6.315 6.91 15.238 10.916 24.806 10.916s18.491-4.006 24.806-10.916l51.301 14.469c9.651 2.722 16.393 11.627 16.393 21.655v43.791zm27 15v51h-27v-51zm-158 0v51h-27v-51zm79.769-192 21.987 29.079c-4.245 16.052-18.888 27.921-36.255 27.921-20.678 0-37.5-16.822-37.5-37.5v-19.5zm-49.619-15c5.16-14.549 19.054-25 35.35-25 20.678 0 37.5 16.822 37.5 37.5v8.354l-15.769-20.854zm49.85 84.947v16.133c-3.523 4.363-8.805 6.92-14.5 6.92s-10.977-2.557-14.5-6.92v-16.133c4.609 1.327 9.47 2.053 14.5 2.053s9.891-.726 14.5-2.053zm-143 137.053v-20.5h-15v56.5h-93v-56.5h-15v20.5h-21v-45.549c0-9.635 6.127-18.194 15.247-21.299l17.833-6.073 49.42 41.183 49.42-41.183 17.833 6.073c9.119 3.104 15.246 11.664 15.246 21.299v45.549zm21 15v21h-21v-21zm-144 0v21h-21v-21zm28.529-131.025c-11.957-.511-21.529-10.395-21.529-22.475v-32c0-30.052 24.448-54.5 54.5-54.5s54.5 24.448 54.5 54.5v32c0 12.081-9.572 21.965-21.529 22.475 4.732-6.628 7.529-14.729 7.529-23.475v-7c0-19.575-15.925-35.5-35.5-35.5h-45.5v42.5c0 8.747 2.796 16.848 7.529 23.475zm7.471-50.975h30.5c11.304 0 20.5 9.196 20.5 20.5v7c0 14.061-11.439 25.5-25.5 25.5s-25.5-11.439-25.5-25.5zm9 82.869v-18.397c5.044 2.26 10.625 3.528 16.5 3.528s11.456-1.268 16.5-3.528v18.397l16.286 5.546-32.786 27.322-32.786-27.322zm.858-284.869c1.544 5.381 4.026 10.45 7.378 15h-78.629l-15-15zm-96.858 10.607 15 15v297.844 85.941l-15 15zm10.607 424.393 15-15h373.785l15 15zm414.393-10.607-15-15v-114.184-269.602l15-15z" fill="#233d91"/></g></svg>