<svg id="Capa_1" enable-background="new 0 0 511 511" height="512" viewBox="0 0 511 511" width="512" xmlns="http://www.w3.org/2000/svg"><g id="Outline_47_" fill="#233d91"><path d="m317 406.961v-34.44c7.134-7.506 30.73-33.094 54.657-67.488 38.05-54.697 57.343-102.989 57.343-143.533 0-50.41-16.596-91.935-47.993-120.084-30.221-27.095-73.62-41.416-125.507-41.416-51.886 0-95.286 14.321-125.506 41.416-31.398 28.149-47.994 69.674-47.994 120.084 0 40.544 19.293 88.836 57.343 143.533 23.927 34.395 47.524 59.983 54.657 67.488v34.439c-9.247 2.796-16 11.392-16 21.539 0 9.777 6.271 18.114 15 21.21v23.79c0 20.678 16.822 37.5 37.5 37.5h50c20.678 0 37.5-16.822 37.5-37.5v-23.79c8.729-3.096 15-11.433 15-21.21 0-10.146-6.753-18.742-16-21.538zm97-245.461c0 82.769-92.351 184.21-107.707 200.5h-13.175c10.846-24.907 36.776-89.229 46.32-154.877l19.592-19.613c9.034-9.043 13.995-21.055 13.971-33.821s-5.032-24.758-14.102-33.767c-5.61-5.573-12.274-9.456-19.352-11.677-5.694-40.246-18.462-70.421-36.842-88.549 70.533 15.069 111.295 65.72 111.295 141.804zm-192.03 26.01 22.929 22.953-24.399 24.425-57.917-57.979c-6.196-6.203-9.6-14.438-9.583-23.191.017-8.751 3.452-16.974 9.673-23.152 12.854-12.771 33.73-12.731 46.535.09l3.158 3.161c-2.84 6.153-4.352 12.895-4.366 19.872-.025 12.765 4.936 24.777 13.97 33.821zm1.03-33.793c.018-8.752 3.453-16.974 9.673-23.153 6.412-6.369 14.815-9.551 23.221-9.551 8.447 0 16.895 3.216 23.314 9.642l11.292 11.303 11.292-11.303c12.806-12.82 33.682-12.859 46.536-.09 6.22 6.179 9.655 14.401 9.672 23.153s-3.386 16.988-9.582 23.19l-57.918 57.98-57.918-57.979c-6.196-6.204-9.599-14.439-9.582-23.192zm-2.5 102.395 35-35.037 35 35.037 30.56-30.592c-12.256 62.146-37.213 120.504-44.364 136.48h-42.393c-7.15-15.976-32.107-74.333-44.363-136.48zm81.5 120.888v29h-93v-29zm-46.5-362c17.587 0 32.504 8.143 44.336 24.202 11.614 15.764 19.735 38.237 24.211 66.847-11.938.261-23.794 4.922-32.866 14.003l-.681.682-.68-.682c-18.636-18.653-49.013-18.713-67.719-.131-.405.402-.792.818-1.181 1.232l-1.1-1.101c-9.072-9.082-20.929-13.742-32.867-14.003 4.475-28.61 12.596-51.083 24.211-66.847 11.833-16.059 26.749-24.202 44.336-24.202zm-158.5 146.5c0-76.084 40.763-126.735 111.295-141.804-18.38 18.127-31.148 48.303-36.842 88.549-7.078 2.221-13.742 6.104-19.352 11.676-9.068 9.008-14.076 21-14.101 33.766-.025 12.768 4.936 24.778 13.97 33.822l19.592 19.613c9.544 65.648 35.474 129.971 46.319 154.877h-13.174c-15.356-16.289-107.707-117.73-107.707-200.499zm206 312c0 12.406-10.094 22.5-22.5 22.5h-50c-12.407 0-22.5-10.094-22.5-22.5v-22.5h95zm7.5-37.5h-110c-4.136 0-7.5-3.364-7.5-7.5s3.364-7.5 7.5-7.5h110c4.136 0 7.5 3.364 7.5 7.5s-3.364 7.5-7.5 7.5z"/><path d="m123 447c-.143 0-.285.001-.427.003-7.557-12.918-21.41-21.003-36.673-21.003-11.719 0-22.624 4.686-30.605 13.008-1.681-.271-3.383-.408-5.095-.408-14.323 0-26.767 9.701-30.701 23.01-11.147 2.512-19.499 12.494-19.499 24.39 0 13.785 11.215 25 25 25h98c17.645 0 32-14.355 32-32s-14.355-32-32-32zm0 49h-98c-5.514 0-10-4.486-10-10s4.486-10 10-10c.145 0 .289.005.433.012l7.228.349.607-7.211c.734-8.72 8.171-15.55 16.933-15.55 1.839 0 3.66.298 5.412.886l5.107 1.714 3.255-4.293c5.255-6.931 13.247-10.907 21.925-10.907 11.114 0 21.073 6.624 25.372 16.876l2.372 5.654 6.013-1.199c1.099-.22 2.224-.331 3.344-.331 9.374 0 17 7.626 17 17s-7.627 17-17.001 17z"/><path d="m478.247 390.764c-3.605 0-7.174.604-10.56 1.77-7.035-7.39-16.78-11.657-27.099-11.657-.066 0-.132 0-.198.001-8.844-11.9-22.534-18.877-37.46-18.877-25.877-.001-46.93 21.308-46.93 47.499s21.053 47.5 46.931 47.5h75.316c18.06 0 32.753-14.856 32.753-33.118s-14.693-33.118-32.753-33.118zm0 51.236h-75.316c-17.607 0-31.931-14.579-31.931-32.5s14.324-32.5 31.931-32.5c11.188 0 21.368 5.805 27.233 15.527l2.544 4.217 4.881-.658c1.048-.142 2.029-.21 3-.21 7.475 0 14.463 3.764 18.693 10.067l3.955 5.895 6.103-3.625c2.697-1.603 5.777-2.449 8.907-2.449 9.789 0 17.753 8.128 17.753 18.118s-7.964 18.118-17.753 18.118z"/><path d="m45.333 374h54.167c17.92 0 32.5-14.579 32.5-32.5s-14.58-32.5-32.5-32.5c-8.56 0-16.709 3.393-22.732 9.284-2.367-.628-4.815-.951-7.268-.951-4.227 0-8.329.925-12.083 2.702-3.754-1.777-7.856-2.702-12.083-2.702-15.624 0-28.334 12.711-28.334 28.334s12.71 28.333 28.333 28.333zm0-41.667c2.788 0 5.459.855 7.726 2.473l4.356 3.109 4.357-3.109c2.267-1.617 4.938-2.473 7.727-2.473 2.146 0 4.197.497 6.097 1.478l5.814 3.002 3.762-5.354c3.284-4.671 8.639-7.459 14.328-7.459 9.649 0 17.5 7.851 17.5 17.5s-7.851 17.5-17.5 17.5h-54.167c-7.352 0-13.333-5.981-13.333-13.333 0-7.353 5.981-13.334 13.333-13.334z"/></g></svg>