<svg id="Capa_1" enable-background="new 0 0 511 511" height="512" viewBox="0 0 511 511" width="512" xmlns="http://www.w3.org/2000/svg"><g id="Outline_49_" fill="#233d91"><path d="m265.5 320h-20c-12.406 0-22.5 10.094-22.5 22.5v2.5h-42.5v15h42.5v15h10v24.081c-6.157 5.917-10 14.225-10 23.419v52.5h65v-52.5c0-9.194-3.843-17.501-10-23.419v-24.081h10v-32.5c0-12.406-10.094-22.5-22.5-22.5zm-27.5 22.5c0-4.136 3.364-7.5 7.5-7.5h20c4.136 0 7.5 3.364 7.5 7.5v17.5h-35zm35 117.5h-35v-37.5c0-9.649 7.851-17.5 17.5-17.5s17.5 7.851 17.5 17.5zm-10-69.117c-2.409-.572-4.918-.883-7.5-.883s-5.091.312-7.5.883v-15.883h15z"/><path d="m368 101.087v-17.377c8.729-3.096 15-11.433 15-21.21 0-12.406-10.094-22.5-22.5-22.5h-72.5v-7.5c0-17.921-14.579-32.5-32.5-32.5s-32.5 14.579-32.5 32.5v7.5h-72.5c-12.406 0-22.5 10.094-22.5 22.5 0 9.777 6.271 18.114 15 21.21v17.377c-43.199 8.355-75 46.339-75 90.951v271.462c0 26.191 21.309 47.5 47.5 47.5h280c26.191 0 47.5-21.309 47.5-47.5v-271.462c0-44.612-31.801-82.596-75-90.951zm-130-68.587c0-9.649 7.851-17.5 17.5-17.5s17.5 7.851 17.5 17.5v7.5h-35zm-87.5 22.5h210c4.136 0 7.5 3.364 7.5 7.5s-3.364 7.5-7.5 7.5h-210c-4.136 0-7.5-3.364-7.5-7.5s3.364-7.5 7.5-7.5zm.894 59.946 6.606-.792v-29.154h195v29.154l6.606.792c36.637 4.396 64.804 33.925 68.071 70.054h-33.227l.405-2.296c1.277-7.236-.34-14.535-4.551-20.554-4.215-6.021-10.521-10.037-17.752-11.306l-40.552-7.151v-7.193c0-15.163-12.337-27.5-27.5-27.5h-70c-12.956 0-23.841 9.009-26.738 21.09-3.123-.26-6.3.021-9.417.856l-57.954 15.527c-7.098 1.896-13.03 6.445-16.703 12.81-3.673 6.361-4.647 13.772-2.745 20.868l1.299 4.849h-38.92c3.268-36.128 31.435-65.657 68.072-70.054zm-13.623 70.054-2.34-8.732c-.864-3.226-.422-6.594 1.247-9.485 1.669-2.89 4.362-4.956 7.59-5.818l57.961-15.529c3.223-.864 6.594-.423 9.485 1.247 2.89 1.669 4.956 4.362 5.818 7.591l8.239 30.726zm103.53 0-9.278-34.605c-1.601-5.992-5.098-11.147-9.977-14.82.478-6.461 5.874-11.575 12.454-11.575h70c6.893 0 12.5 5.607 12.5 12.5v4.547l-3.536-.624c-14.929-2.638-29.225 7.369-31.859 22.304l-3.928 22.273zm55.075-19.666c.581-3.29 2.406-6.155 5.141-8.07 2.734-1.914 6.053-2.645 9.341-2.068l59.097 10.422c3.284.577 6.147 2.4 8.061 5.134 1.915 2.736 2.649 6.056 2.069 9.346l-.867 4.902h-86.311zm99.124 330.666h-280c-17.921 0-32.5-14.579-32.5-32.5v-263.5h345v263.5c0 17.921-14.579 32.5-32.5 32.5z"/><path d="m185.5 235h16v15h-16z"/><path d="m115.5 365h16v15h-16z"/><path d="m345.5 335h16v15h-16z"/><path d="m385.5 285h16v15h-16z"/><path d="m181.328 309.056c10.238-10.316 10.205-27.069-.072-37.344-4.976-4.975-11.58-7.712-18.605-7.712-.017 0-.035 0-.053 0-5.907.012-11.513 1.958-16.098 5.537-4.585-3.579-10.189-5.525-16.097-5.537-.018 0-.035 0-.054 0-7.023 0-13.63 2.737-18.605 7.712-10.277 10.274-10.311 27.027-.072 37.344l34.828 35.091zm-58.978-26.737c2.142-2.141 4.982-3.319 8.001-3.319h.023c3.026.006 5.87 1.196 8.01 3.352l8.116 8.176 8.117-8.177c2.139-2.154 4.983-3.345 8.01-3.351h.022c3.019 0 5.859 1.179 8.001 3.319 4.45 4.449 4.464 11.703.031 16.17l-24.181 24.365-24.182-24.364c-4.432-4.468-4.419-11.721.032-16.171z"/><path d="m375.957 377c-.019 0-.038 0-.057 0-6.798.014-13.229 2.377-18.4 6.711-5.171-4.334-11.604-6.697-18.401-6.711-.019 0-.037 0-.057 0-7.764 0-15.06 3.068-20.547 8.644-11.261 11.44-11.297 30.09-.08 41.574l39.085 40.016 39.085-40.016c11.217-11.484 11.181-30.134-.08-41.574-5.488-5.576-12.783-8.644-20.548-8.644zm9.897 39.737-28.354 29.03-28.354-29.029c-5.55-5.683-5.532-14.91.039-20.571 2.646-2.688 6.146-4.166 9.858-4.166h.027c3.724.007 7.229 1.501 9.872 4.206l8.558 8.762 8.558-8.762c2.643-2.705 6.148-4.198 9.872-4.206h.026c3.713 0 7.214 1.479 9.859 4.167 5.572 5.659 5.589 14.887.039 20.569z"/><path d="m176.343 406c-.015 0-.03 0-.046 0-5.026.01-9.807 1.595-13.797 4.524-3.99-2.93-8.771-4.515-13.799-4.524-.015 0-.029 0-.045 0-6.33 0-12.275 2.5-16.746 7.042-9.156 9.302-9.186 24.468-.065 33.807l30.655 31.385 30.656-31.385c9.119-9.339 9.09-24.505-.066-33.807-4.472-4.542-10.417-7.042-16.747-7.042zm6.082 30.368-19.925 20.399-19.924-20.398c-3.454-3.537-3.443-9.28.024-12.804 1.628-1.654 3.778-2.564 6.057-2.564h.016c2.286.004 4.44.924 6.066 2.589l7.761 7.947 7.76-7.946c1.627-1.666 3.781-2.586 6.066-2.59h.017c2.277 0 4.429.91 6.058 2.565 3.466 3.522 3.477 9.265.024 12.802z"/><path d="m347.681 227.323c-5.993-6.014-13.951-9.323-22.416-9.323-.021 0-.042 0-.062 0-7.689.015-14.954 2.759-20.702 7.774-5.748-5.016-13.013-7.76-20.702-7.774-.021 0-.041 0-.062 0-8.464 0-16.423 3.31-22.416 9.322-12.366 12.408-12.405 32.637-.087 45.093l43.268 43.751 43.268-43.751c12.316-12.456 12.277-32.685-.089-45.092zm-10.579 34.545-32.602 32.966-32.602-32.966c-6.545-6.618-6.524-17.365.046-23.957 3.157-3.168 7.344-4.911 11.792-4.911h.032c4.461.009 8.654 1.77 11.807 4.957l8.925 9.024 8.925-9.024c3.152-3.188 7.346-4.948 11.807-4.957h.032c4.448 0 8.635 1.744 11.793 4.912 6.569 6.591 6.589 17.338.045 23.956z"/></g></svg>