<svg id="Capa_1" enable-background="new 0 0 510.907 510.907" height="512" viewBox="0 0 510.907 510.907" width="512" xmlns="http://www.w3.org/2000/svg"><g id="Outline_48_" fill="#233d91"><path d="m481.95 222.288c-9.85-9.822-21.406-17.303-33.996-22.172v-7.093c0-106.145-86.355-192.5-192.5-192.5s-192.5 86.355-192.5 192.5v7.093c-12.591 4.869-24.147 12.351-33.996 22.171-38.504 38.391-38.626 100.979-.271 139.521l147.857 148.576 78.909-79.293 78.91 79.293 147.857-148.576c38.355-38.54 38.234-101.129-.27-139.52zm-403.996-29.265c0-97.874 79.626-177.5 177.5-177.5s177.5 79.626 177.5 177.5v2.646c-6.688-1.414-13.571-2.146-20.567-2.146-.063 0-.132 0-.196 0-4.808.009-9.562.365-14.236 1.046v-1.546c0-78.575-63.925-142.5-142.5-142.5s-142.5 63.925-142.5 142.5v1.548c-4.675-.682-9.429-1.037-14.238-1.047-.065-.001-.13-.001-.195-.001-6.995 0-13.878.732-20.566 2.146v-2.646zm305 0v4.954c-15.102 4.706-28.932 13.045-40.411 24.581l-8.18 8.219-8.18-8.219c-18.583-18.673-43.319-28.984-69.651-29.035-.066 0-.128 0-.194 0-26.257 0-50.956 10.212-69.562 28.764-3.181 3.172-6.075 6.523-8.732 9.998l-9.679-9.726c-11.479-11.536-25.309-19.875-40.411-24.58v-4.955c0-70.304 57.196-127.5 127.5-127.5s127.5 57.196 127.5 127.499zm-206.409 296.095-137.225-137.89c-32.526-32.685-32.424-85.762.23-118.319 15.774-15.729 36.711-24.386 58.972-24.386.055 0 .111 0 .165.001 22.323.043 43.293 8.784 59.046 24.614l11.967 12.025c-20.198 37.333-14.625 85.06 16.807 116.644l58.367 58.651zm295.043-137.89-137.225 137.89-137.225-137.89c-32.526-32.684-32.424-85.761.229-118.318 15.774-15.729 36.711-24.386 58.971-24.386h.164c22.323.043 43.294 8.785 59.048 24.615l18.812 18.904 18.812-18.904c15.753-15.83 36.722-24.572 59.044-24.615h.167c22.259 0 43.197 8.656 58.972 24.387 32.654 32.556 32.757 85.633.231 118.317z"/><path d="m363.449 293.95c-8.704-8.124-20.064-12.142-31.992-11.323-21.278 1.467-38.231 18.64-39.434 39.946-.762 13.497 4.767 26.247 14.931 34.849v34.602c0 15.163 12.337 27.5 27.5 27.5s27.5-12.337 27.5-27.5v-34.607c9.458-8.037 15-19.872 15-32.393 0-11.737-4.923-23.063-13.505-31.074zm-13.287 53.639-3.208 2.238v42.196c0 6.893-5.607 12.5-12.5 12.5s-12.5-5.607-12.5-12.5v-42.196l-3.208-2.238c-7.898-5.512-12.289-14.547-11.746-24.17.777-13.776 11.735-24.88 25.488-25.827.662-.046 1.322-.068 1.978-.068 7.005 0 13.6 2.586 18.748 7.392 5.636 5.262 8.74 12.402 8.74 20.108 0 8.977-4.408 17.413-11.792 22.565z"/></g></svg>