<svg id="Capa_1" enable-background="new 0 0 511 511" height="512" viewBox="0 0 511 511" width="512" xmlns="http://www.w3.org/2000/svg"><g id="Outline_18_" fill="#233d91"><path d="m58 0v511h395v-511zm380 496h-365v-481h365z"/><path d="m138 473.5v7.5h235v-7.5c0-23.435 19.065-42.5 42.5-42.5h7.5v-351h-7.5c-23.435 0-42.5-19.065-42.5-42.5v-7.5h-235v7.5c0 23.435-19.065 42.5-42.5 42.5h-7.5v351h7.5c23.435 0 42.5 19.065 42.5 42.5zm-35-378.987c25.721-3.365 46.148-23.792 49.513-49.513h205.975c3.364 25.721 23.792 46.148 49.513 49.513v321.974c-25.721 3.365-46.148 23.792-49.513 49.513h-205.975c-3.364-25.721-23.792-46.148-49.513-49.513z"/><path d="m145.5 230h220v15h-220z"/><path d="m195.5 260h120v15h-120z"/><path d="m165.5 290h180v15h-180z"/><path d="m145.5 370h100v15h-100z"/><path d="m265.5 370h100v15h-100z"/><path d="m160.5 400h70v15h-70z"/><path d="m280.5 400h70v15h-70z"/><path d="m227.5 198.132 28-28.136 28 28.136 55.896-56.167c15.489-15.565 15.44-40.842-.109-56.346-7.517-7.494-17.493-11.619-28.101-11.619-.025 0-.053 0-.079 0-10.39.02-20.164 3.995-27.606 11.208-7.444-7.213-17.22-11.188-27.609-11.208-.026 0-.052 0-.078 0-10.56 0-20.495 4.092-27.999 11.524-7.482-7.41-17.383-11.504-27.922-11.524-.026 0-.053 0-.079 0-10.607 0-20.584 4.125-28.1 11.619-15.55 15.505-15.599 40.782-.109 56.347zm10.806-101.891c4.684-4.67 10.9-7.241 17.509-7.241h.049c6.628.013 12.854 2.608 17.531 7.309l10.105 10.155 10.105-10.155c4.677-4.7 10.903-7.296 17.53-7.309h.05c6.608 0 12.825 2.57 17.509 7.241 9.699 9.67 9.729 25.436.068 35.144l-45.262 45.483-45.263-45.483c-9.661-9.708-9.631-25.473.069-35.144zm-56 0c4.694-4.682 10.928-7.206 17.557-7.241 6.628.013 12.854 2.608 17.531 7.309l1.835 1.844c-6.19 14.506-3.411 31.969 8.375 43.813l17.314 17.398-17.418 17.504-45.263-45.483c-9.661-9.708-9.631-25.474.069-35.144z"/></g></svg>