<svg id="Capa_1" enable-background="new 0 0 512 512" height="512" viewBox="0 0 512 512" width="512" xmlns="http://www.w3.org/2000/svg"><g id="Outline_25_" fill="#233d91"><path d="m393.027 496.5c-2.484-19.969-14.773-37.465-32.959-46.569-4.587-15.546-18.932-26.453-35.522-26.453-.898 0-1.799.033-2.698.099-7.671-9.818-19.414-15.949-31.945-16.54-6.572-8.447-15.95-14.059-26.402-15.886v-61.044l31.254-31.254c2.965.316 7.402.659 12.711.659 15.448 0 38.22-2.909 53.178-17.868 23.958-23.957 17.008-67.95 16.7-69.811l-.876-5.301-5.3-.876c-1.862-.311-45.854-7.258-69.811 16.7-20.1 20.099-18.445 54.296-17.209 65.889l-20.648 20.648v-85.998l98.972-99.357c13.598-13.65 21.065-31.778 21.028-51.046-.038-19.268-7.576-37.366-21.227-50.964-13.616-13.564-31.686-21.028-50.901-21.028-.047 0-.097 0-.144 0-19.268.038-37.367 7.575-50.964 21.226l-4.264 4.28-4.264-4.28c-13.598-13.651-31.697-21.189-50.965-21.226-.048 0-.095 0-.144 0-19.214 0-37.287 7.465-50.901 21.028-13.651 13.598-21.189 31.696-21.227 50.964-.037 19.268 7.431 37.396 21.028 51.046l98.972 99.357v122.998l-20.77-20.77c1.381-12.451 3.557-51.208-19.044-73.809-26.615-26.615-75.647-18.869-77.722-18.525l-5.3.876-.876 5.301c-.343 2.074-8.09 51.105 18.526 77.722 16.599 16.599 41.916 19.832 59.124 19.832 6.227 0 11.377-.423 14.684-.79l31.378 31.378v24.044c-10.452 1.827-19.831 7.439-26.402 15.886-12.532.591-24.274 6.722-31.945 16.54-.899-.065-1.799-.099-2.698-.099-16.59 0-30.935 10.907-35.522 26.453-18.186 9.104-30.475 26.601-32.959 46.569h-118.973v15h512v-15h-118.973zm-81.064-263.536c14.217-14.217 39.922-13.999 51.201-13.114.904 11.272 1.147 36.914-13.126 51.187-14.214 14.215-39.912 14-51.201 13.114-.905-11.273-1.148-36.915 13.126-51.187zm-98.925 88.086c-12.383 1.071-42.458 1.688-59.117-14.971-16.6-16.6-16.011-46.741-14.958-59.129 12.381-1.073 42.458-1.688 59.118 14.971 16.597 16.599 16.009 46.735 14.957 59.129zm-52.883-208.098c-10.77-10.812-16.685-25.17-16.655-40.431s6-29.597 16.813-40.366c10.784-10.743 25.097-16.655 40.316-16.655h.113c15.261.029 29.597 6 40.367 16.812l14.891 14.95 14.891-14.95c10.77-10.812 25.105-16.782 40.366-16.812h.114c15.218 0 29.532 5.912 40.316 16.655 10.813 10.77 16.783 25.106 16.813 40.366.029 15.261-5.885 29.619-16.655 40.431l-95.845 96.218zm-26.027 383.548c2.532-15.174 12.637-28.219 27.179-34.384l3.738-1.585.717-3.996c1.876-10.464 11-18.058 21.692-18.058 2.823-.101 7.104 1.056 9.892 1.617l2.763-4.579c5.111-8.47 14.076-13.526 23.981-13.526 1.053-.015 4.778.225 5.884.272l2.348-3.716c5.16-8.169 14.012-13.046 23.677-13.046s18.517 4.877 23.677 13.046l2.348 3.716c1.13-.049 4.809-.286 5.884-.272 9.905 0 18.87 5.057 23.981 13.526l2.763 4.579c2.806-.564 7.052-1.715 9.892-1.617 10.693 0 19.816 7.594 21.692 18.058l.717 3.996 3.738 1.585c14.542 6.165 24.648 19.209 27.179 34.384z"/><path d="m67.254 344.182c-10.294 10.254-10.327 26.972-.072 37.267l34.818 34.952 34.818-34.953c10.254-10.295 10.221-27.013-.073-37.267-9.49-9.454-24.434-10.165-34.746-2.156-10.31-8.006-25.256-7.296-34.745 2.157zm58.906 10.627c4.435 4.417 4.448 11.619.031 16.054l-24.191 24.284-24.19-24.285c-4.417-4.435-4.404-11.637.031-16.054 2.212-2.203 5.111-3.304 8.011-3.304 2.914 0 5.828 1.112 8.042 3.335l8.107 8.14 8.107-8.14c4.416-4.433 11.618-4.448 16.052-.03z"/><path d="m53 302.051 43.248-43.416c12.35-12.398 12.311-32.533-.087-44.883-5.991-5.968-13.942-9.252-22.396-9.252-.021 0-.042 0-.063 0-7.688.015-14.953 2.743-20.702 7.731-5.749-4.987-13.014-7.717-20.702-7.731-.021 0-.042 0-.062 0-8.454 0-16.406 3.284-22.396 9.252-12.398 12.35-12.438 32.484-.087 44.883zm-32.575-77.672c3.159-3.147 7.352-4.879 11.811-4.879h.033c4.471.009 8.67 1.758 11.825 4.925l8.906 8.941 8.905-8.941c3.155-3.167 7.354-4.916 11.825-4.925h.033c4.458 0 8.652 1.732 11.811 4.879 6.538 6.514 6.559 17.132.046 23.67l-32.62 32.748-32.621-32.748c-6.513-6.538-6.492-17.156.046-23.67z"/><path d="m357.068 344.73 1.25 2.165 8.458 14.65-34.152 6.417-.707 42.028 67.526 8.136 2.625 4.546c3.673 6.361 9.603 10.912 16.698 12.813 2.37.635 4.773.948 7.162.948 4.765 0 9.468-1.25 13.706-3.696l43.301-24.999c13.131-7.582 17.646-24.435 10.065-37.566l-4.25-7.361 6.495-3.75c7.518-4.34 12.896-11.349 15.143-19.734s1.094-17.144-3.247-24.661c-8.961-15.521-28.877-20.857-44.396-11.896l-6.495 3.75-7-12.125-34.641 20-20-34.641-23.815 13.75c-17.907 10.34-24.065 33.319-13.726 51.226zm-9.925 51.987.273-16.272 27.309-5.13 15.343 26.574zm123.103-80.956c8.356-4.823 19.08-1.951 23.906 6.405 2.337 4.048 2.958 8.764 1.748 13.279s-4.105 8.289-8.154 10.626l-6.495 3.75-17.5-30.311zm-26.486-.875 29 50.229 7.25 12.557c3.446 5.969 1.394 13.63-4.575 17.076l-43.302 24.999c-2.89 1.67-6.258 2.116-9.485 1.249-3.225-.864-5.921-2.933-7.59-5.824l-36.25-62.787zm-65.466-8.391 10.825-6.25 12.5 21.65-30.311 17.5-1.25-2.165c-6.203-10.744-2.509-24.532 8.236-30.735z"/></g></svg>