<svg id="Capa_1" enable-background="new 0 0 511.5 511.5" height="512" viewBox="0 0 511.5 511.5" width="512" xmlns="http://www.w3.org/2000/svg"><g id="Outline_12_" fill="#233d91"><path d="m433.552 96.875c-22.258-22.174-51.798-34.375-83.208-34.375-.077 0-.158 0-.235 0-31.496.061-61.083 12.383-83.31 34.697l-11.049 11.091-11.049-11.091c-22.228-22.313-51.815-34.636-83.311-34.697-.079 0-.156 0-.235 0-31.408 0-60.951 12.203-83.208 34.375-22.314 22.228-34.637 51.814-34.698 83.31-.062 31.496 12.146 61.13 34.374 83.444l95.625 95.998v74.373c0 20.037 15.796 36.453 35.589 37.452 3.587 22.664 23.255 40.048 46.911 40.048s43.324-17.385 46.911-40.048c19.793-.998 35.589-17.415 35.589-37.452v-74.374l95.626-95.998c22.228-22.314 34.436-51.948 34.374-83.444-.06-31.496-12.382-61.082-34.696-83.309zm-177.802 399.625c-15.339 0-28.221-10.685-31.617-25h63.234c-3.396 14.315-16.278 25-31.617 25zm45-40h-90c-11.561 0-21.11-8.766-22.358-20h134.716c-1.249 11.234-10.797 20-22.358 20zm22.5-35h-135v-20h135zm0-35h-135v-20h135zm-110-125h-17.5c-9.649 0-17.5-7.851-17.5-17.5s7.851-17.5 17.5-17.5 17.5 7.851 17.5 17.5zm15 90v-75h55v75zm194.999-98.458-98.077 98.458h-26.922v-75h17.5c17.921 0 32.5-14.58 32.5-32.5s-14.579-32.5-32.5-32.5-32.5 14.58-32.5 32.5v17.5h-55v-17.5c0-17.92-14.58-32.5-32.5-32.5s-32.5 14.58-32.5 32.5 14.58 32.5 32.5 32.5h17.5v75h-26.922l-98.076-98.458c-19.4-19.476-30.055-45.34-30.001-72.829s10.809-53.312 30.285-72.712c19.424-19.352 45.205-30.001 72.62-30.001h.205c27.49.053 53.313 10.808 72.713 30.284l21.676 21.76 21.676-21.76c19.399-19.475 45.222-30.23 72.712-30.283h.205c27.413 0 53.197 10.65 72.623 30.001 19.476 19.4 30.23 45.223 30.284 72.712.053 27.489-10.602 53.353-30.001 72.828zm-124.999 8.458v-17.5c0-9.649 7.851-17.5 17.5-17.5s17.5 7.851 17.5 17.5-7.851 17.5-17.5 17.5z"/><path d="m248.25 0h15v50h-15z"/><path d="m198.25 12.783h15v47.324h-15z" transform="matrix(.906 -.423 .423 .906 3.875 90.368)"/><path d="m282.088 28.946h47.324v14.999h-47.324z" transform="matrix(.423 -.906 .906 .423 143.504 298.146)"/></g></svg>