<svg id="Capa_1" enable-background="new 0 0 511 511" height="512" viewBox="0 0 511 511" width="512" xmlns="http://www.w3.org/2000/svg"><g id="Outline_35_" fill="#233d91"><path d="m230.5 314.668 25.001-25.1 24.999 25.096 51.678-51.879c14.446-14.502 14.4-38.054-.102-52.5-7.007-6.98-16.308-10.822-26.196-10.822-.025 0-.05 0-.075.001-9.485.019-18.421 3.569-25.305 10.027-6.884-6.459-15.819-10.01-25.305-10.028-.025 0-.05 0-.074 0-9.335 0-18.144 3.427-24.996 9.683-6.834-6.239-15.617-9.666-24.93-9.684-.025 0-.05 0-.076 0-9.887 0-19.187 3.843-26.193 10.825-14.5 14.451-14.544 38.001-.1 52.495zm9.011-93.756c4.176-4.16 9.717-6.449 15.61-6.449h.044c5.909.012 11.46 2.324 15.631 6.511l9.703 9.74 9.703-9.74c4.17-4.187 9.722-6.499 15.631-6.511h.044c5.893 0 11.435 2.29 15.611 6.449 8.643 8.609 8.67 22.645.061 31.287l-41.049 41.211-41.051-41.211c-8.609-8.642-8.581-22.678.062-31.287zm-49.997 0c4.186-4.17 9.771-6.49 15.651-6.45 5.908.012 11.459 2.324 15.629 6.509l.452.454c-6.076 13.62-3.563 30.179 7.576 41.36l16.092 16.155-14.414 14.472-41.048-41.216c-8.607-8.637-8.579-22.672.062-31.284z"/><path d="m484.453 366.467c-.336-.334-.678-.658-1.025-.973 5.676-28.168-7.384-64.179-37.23-102.177-2.046-2.605-4.167-5.208-6.35-7.808 4.435-5.287 8.6-10.597 12.474-15.914 32.029-43.956 40.709-83.677 24.444-111.846-16.262-28.169-55.001-40.509-109.081-34.749-6.538.696-13.215 1.648-20.007 2.844-2.36-6.48-4.875-12.738-7.541-18.748-22.052-49.716-52.11-77.096-84.637-77.096-30.013 0-58.103 23.524-79.586 66.409-11.319-8.087-27.191-7.08-37.368 3.058-5.497 5.475-8.532 12.763-8.547 20.521-.001.654.027 1.304.068 1.951-47.136-2.503-80.96 10.049-95.833 35.811-16.266 28.17-7.585 67.891 24.444 111.847 3.874 5.317 8.039 10.627 12.474 15.914-2.183 2.599-4.304 5.202-6.35 7.808-29.846 37.997-42.906 74.009-37.23 102.177-.348.314-.69.639-1.025.973-5.497 5.475-8.532 12.763-8.547 20.521s2.992 15.058 8.467 20.554l39.033 39.182 28.858-28.97c7.604 1.086 15.678 1.623 24.156 1.623 13.958 0 29.003-1.45 44.799-4.249 2.363 6.49 4.881 12.756 7.55 18.775 22.052 49.715 52.11 77.095 84.637 77.095s62.585-27.38 84.637-77.096c2.669-6.018 5.187-12.284 7.549-18.773 15.795 2.799 30.84 4.249 44.799 4.248 8.474-.001 16.553-.539 24.157-1.623l28.857 28.97 39.033-39.185c5.475-5.496 8.482-12.796 8.467-20.554s-3.049-15.046-8.546-20.52zm-115.18-258.552c47.136-5.019 81.576 4.944 94.502 27.335 12.93 22.392 4.337 57.205-23.576 95.512-3.247 4.456-6.72 8.907-10.385 13.346-17.201-18.706-37.73-37.029-60.638-54.187-3.394-28.494-8.999-55.413-16.628-79.689 5.668-.953 11.251-1.734 16.725-2.317zm1.948 102.603c18.409 14.655 34.777 29.876 48.635 45.073-14.019 15.423-30.395 30.581-48.648 45.053 1.182-14.755 1.792-29.847 1.792-45.144 0-15.241-.605-30.278-1.779-44.982zm-166.971-43.783c16.972-9.799 34.134-18.531 51.197-26.109 17.244 7.641 34.496 16.404 51.303 26.109 17.073 9.857 33.23 20.423 48.266 31.421 1.966 18.551 2.984 37.764 2.984 57.344 0 19.617-1.022 38.865-2.995 57.448-15.107 11-31.266 21.508-48.256 31.316-17.011 9.823-34.204 18.561-51.25 26.126-17.046-7.566-34.239-16.304-51.249-26.126-16.989-9.808-33.148-20.317-48.255-31.316-1.973-18.582-2.995-37.831-2.995-57.448 0-19.471 1.029-38.711 3.018-57.369 15.027-10.989 31.172-21.546 48.232-31.396zm-45.654 11.125c2.017-13.606 4.571-26.802 7.638-39.445l11.266 11.31 27.933-28.041c10.281 3.21 20.726 6.916 31.238 11.073-13.346 6.346-26.696 13.352-39.921 20.988-13.193 7.617-25.95 15.692-38.154 24.115zm193.859.035c-12.219-8.435-24.993-16.522-38.204-24.149-13.138-7.586-26.549-14.616-40.026-21.01 21.714-8.595 43.082-15.212 63.495-19.644 6.367 19.892 11.32 41.703 14.735 64.803zm-96.955-162.895c25.856 0 51.707 24.85 70.925 68.178 2.232 5.032 4.347 10.258 6.356 15.642-24.842 5.532-50.96 14.139-77.337 25.45-12.802-5.482-25.576-10.35-38.155-14.527 4.991-5.396 7.724-12.366 7.71-19.756-.015-7.758-3.05-15.046-8.547-20.521-5.681-5.659-13.137-8.474-20.585-8.452 17.526-29.837 38.306-46.014 59.633-46.014zm-106.367 65.094c2.736-2.726 6.324-4.087 9.911-4.087 3.605 0 7.211 1.376 9.95 4.126l8.506 8.54 8.506-8.54c5.465-5.487 14.374-5.504 19.861-.039 2.658 2.647 4.125 6.172 4.133 9.923s-1.447 7.28-4.094 9.938l-28.406 28.517-28.406-28.517c-2.647-2.658-4.102-6.188-4.094-9.938s1.475-7.276 4.133-9.923zm-78.332 150.668c-27.913-38.307-36.506-73.12-23.576-95.512 12.529-21.702 43.88-31.556 88.489-27.902.833 1.119 1.751 2.187 2.753 3.193l15.441 15.501c-5.333 20.013-9.374 41.493-12.046 63.851-22.923 17.166-43.465 35.499-60.676 54.215-3.664-4.439-7.138-8.891-10.385-13.346zm68.991 69.883c-18.253-14.472-34.629-29.63-48.648-45.053 13.862-15.202 30.236-30.427 48.652-45.087-1.186 14.766-1.796 29.817-1.796 44.995 0 15.297.61 30.389 1.792 45.145zm-45.886 96.31-28.406 28.517-28.406-28.517c-2.647-2.658-4.102-6.188-4.094-9.938s1.475-7.275 4.133-9.923c2.736-2.726 6.324-4.087 9.911-4.087 3.605 0 7.211 1.376 9.95 4.126l8.506 8.54 8.506-8.54c5.465-5.488 14.374-5.504 19.861-.039 2.658 2.647 4.125 6.172 4.133 9.923s-1.447 7.28-4.094 9.938zm13.604 7.083c3.574-4.931 5.502-10.843 5.49-17.05-.015-7.758-3.05-15.046-8.547-20.521-10.662-10.62-27.574-11.23-38.953-1.851-6.819-5.62-15.625-7.649-23.882-6.091-3.107-25.412 11.809-58.058 39.606-91.552 17.188 18.714 37.666 36.995 60.605 54.155 3.398 28.504 9.008 55.43 16.645 79.711-18.365 3.103-35.545 4.22-50.964 3.199zm51.039-70.905c12.188 8.401 24.952 16.474 38.2 24.122 13.253 7.653 26.633 14.659 39.996 20.997-21.841 8.649-43.225 15.28-63.45 19.701-6.372-19.896-11.329-41.713-14.746-64.82zm167.876 94.689c-19.218 43.328-45.069 68.178-70.925 68.178s-51.707-24.85-70.925-68.178c-2.239-5.047-4.36-10.289-6.374-15.69 24.653-5.515 50.8-14.084 77.298-25.418 26.499 11.335 52.647 19.905 77.3 25.42-2.014 5.401-4.135 10.642-6.374 15.688zm11.279-29.866c-20.225-4.422-41.609-11.053-63.451-19.704 13.364-6.338 26.745-13.345 39.998-20.998 13.248-7.648 26.013-15.722 38.201-24.123-3.418 23.11-8.375 44.928-14.748 64.825zm65.786 6.083c-15.419 1.023-32.6-.094-50.966-3.198 7.637-24.282 13.248-51.209 16.646-79.714 22.939-17.159 43.417-35.44 60.605-54.154 27.797 33.494 42.713 66.14 39.606 91.552-8.257-1.558-17.062.471-23.882 6.092-11.379-9.378-28.292-8.77-38.953 1.851-5.497 5.475-8.532 12.763-8.547 20.521-.011 6.206 1.917 12.118 5.491 17.05zm70.416-7.084-28.406 28.517-28.406-28.517c-2.647-2.658-4.102-6.188-4.094-9.938s1.475-7.275 4.133-9.923c2.736-2.726 6.324-4.087 9.911-4.087 3.605 0 7.211 1.376 9.95 4.126l8.506 8.54 8.506-8.54c5.465-5.488 14.375-5.504 19.861-.039 2.658 2.647 4.125 6.172 4.133 9.923s-1.447 7.28-4.094 9.938z"/></g></svg>