<svg id="Capa_1" enable-background="new 0 0 511 511" height="512" viewBox="0 0 511 511" width="512" xmlns="http://www.w3.org/2000/svg"><g id="Outline_2_" fill="#233d91"><path d="m155 425.5h15v15h-15z"/><path d="m489 286v-45h14.5v-15h-188.5v-61.614c5.032.19 10.117-.929 14.732-3.399 9.418-5.04 15.268-14.806 15.268-25.487v-4.014l-49-32.666v-98.82h-65v55.486l-58.5-39-172.5 115v4.014c0 10.681 5.85 20.447 15.268 25.487 4.283 2.292 8.969 3.428 13.643 3.428.364 0 .726-.026 1.089-.04v346.625h481v-225zm-44-45h29v45h-29zm-44 0h29v45h-29zm-44 0h29v45h-29zm-15 0v45h-27v-45zm-96-226h35v73.82l-35-23.333zm-41 481h-65v-125h65zm95 0h-80v-140h-95v140h-80v-336.487l127.5-85 127.5 85zm8.378-348.928-135.878-90.586-135.878 90.586c-4.34 2.893-9.677 3.152-14.276.69-3.474-1.859-5.891-4.93-6.865-8.568l157.019-104.68 157.02 104.68c-.975 3.639-3.391 6.709-6.864 8.568-4.6 2.462-9.938 2.203-14.278-.69zm187.622 348.928h-181v-195h181z"/><path d="m473 351h-135v95h135zm-75 80h-45v-65h45zm60 0h-45v-65h45z"/><path d="m144.185 193.852c-7.633-7.621-17.768-11.831-28.556-11.852-.027 0-.054 0-.081 0-10.803 0-20.963 4.201-28.618 11.833-15.837 15.791-15.887 41.535-.111 57.387l57.044 57.322 28.636-28.775 28.636 28.775 57.045-57.322c15.775-15.852 15.726-41.595-.111-57.387-7.674-7.651-17.864-11.887-28.699-11.833-10.637.021-20.64 4.11-28.235 11.53-7.595-7.419-17.598-11.509-28.234-11.53-.027 0-.054 0-.081 0-10.803 0-20.963 4.201-28.618 11.833-.005.006-.011.013-.017.019zm-.321 93.425-46.413-46.638c-9.947-9.995-9.916-26.227.07-36.184 4.834-4.821 11.258-7.473 18.078-7.455 6.824.013 13.234 2.686 18.05 7.525l1.958 1.968c-6.363 14.794-3.549 32.636 8.484 44.726l17.827 17.914zm10.93-82.822c4.822-4.809 11.222-7.455 18.027-7.455h.051c6.824.013 13.234 2.686 18.05 7.525l10.213 10.265 10.215-10.264c4.816-4.84 11.226-7.512 18.049-7.525 6.801-.058 13.244 2.634 18.079 7.455 9.985 9.957 10.018 26.189.071 36.184l-46.413 46.638-46.413-46.638c-9.946-9.996-9.914-26.228.071-36.185z"/></g></svg>