<svg id="Capa_1" enable-background="new 0 0 511 511" height="512" viewBox="0 0 511 511" width="512" xmlns="http://www.w3.org/2000/svg"><g id="Outline_7_" fill="#233d91"><path d="m0 18v437.5c0 20.678 16.822 37.5 37.5 37.5h436c20.678 0 37.5-16.822 37.5-37.5v-437.5zm496 437.5c0 12.407-10.094 22.5-22.5 22.5h-436c-12.407 0-22.5-10.093-22.5-22.5v-354.5h481zm0-369.5h-481v-53h481z"/><path d="m73.5 52h15v15h-15z"/><path d="m43.5 52h15v15h-15z"/><path d="m103.5 52h15v15h-15z"/><path d="m153 448v-40h205v40h123.454l-35.214-42.5 35.214-42.5h-78.454v-40h-20v-84.5c0-20.185-10.358-38.423-27.055-48.793 2.584-4.835 4.055-10.352 4.055-16.207v-12c0-19.023-15.477-34.5-34.5-34.5s-34.5 15.477-34.5 34.5v12c0 5.855 1.471 11.371 4.055 16.207-16.697 10.37-27.055 28.608-27.055 48.793v84.5h-30v-89.5c0-17.507-8.529-33.415-22.451-43.081 2.828-5.003 4.451-10.774 4.451-16.919v-12c0-19.023-15.477-34.5-34.5-34.5s-34.5 15.477-34.5 34.5v12c0 6.146 1.623 11.916 4.451 16.919-13.922 9.666-22.451 25.574-22.451 43.081v89.5h-25v40h-78.454l35.214 42.5-35.214 42.5zm250-70h46.546l-22.786 27.5 22.786 27.5h-76.546v-25h30zm-97-216.5c0-10.752 8.748-19.5 19.5-19.5s19.5 8.748 19.5 19.5v12c0 10.752-8.748 19.5-19.5 19.5s-19.5-8.748-19.5-19.5zm35.129 42.741-15.629 27.909-15.629-27.908c4.696 2.397 10.005 3.759 15.629 3.759s10.933-1.362 15.629-3.76zm-58.129 85.759h18.5v-15h-18.5v-36.5c0-11.442 4.5-22.042 12.165-29.819l30.335 54.169 30.335-54.169c7.665 7.777 12.165 18.377 12.165 29.819v36.5h-18.5v15h18.5v33h-85zm-117-128.5c0-10.752 8.748-19.5 19.5-19.5 7.099 0 13.306 3.825 16.716 9.511-7.652 3.769-21.338 9.515-36.216 11.08zm39 5.315v6.685c0 10.752-8.748 19.5-19.5 19.5-9.338 0-17.155-6.601-19.053-15.379 15.322-1.418 29.293-6.579 38.553-10.806zm-39.35 34.877c5.618 3.968 12.464 6.308 19.85 6.308s14.231-2.341 19.85-6.308c8.897 5.529 15.02 14.476 16.965 24.75-5.416-3.436-11.877-5.442-18.815-5.442-6.398 0-12.615 1.721-18 4.921-5.385-3.201-11.602-4.921-18-4.921-6.938 0-13.399 2.006-18.815 5.442 1.945-10.274 8.068-19.222 16.965-24.75zm-17.65 52.808c0-10.201 8.748-18.5 19.5-18.5 4.854 0 9.508 1.707 13.103 4.806l4.897 4.221 4.897-4.221c3.595-3.099 8.249-4.806 13.103-4.806 10.752 0 19.5 8.299 19.5 18.5v68.5h-75zm-25 83.5h265v55h-265zm-61.546 40h46.546v30h30v25h-76.546l22.786-27.5z"/><path d="m248 358h15v15h-15z"/><path d="m218 358h15v15h-15z"/><path d="m278 358h15v15h-15z"/></g></svg>