<svg id="Capa_1" enable-background="new 0 0 511 511" height="512" viewBox="0 0 511 511" width="512" xmlns="http://www.w3.org/2000/svg"><g id="Outline_32_" fill="#233d91"><path d="m117.5 366h-72.5v-87.5c0-12.406-10.093-22.5-22.5-22.5s-22.5 10.094-22.5 22.5v232.5h45v-70h55v70h45v-117.5c0-15.163-12.336-27.5-27.5-27.5zm12.5 130h-15v-70h-85v70h-15v-217.5c0-4.136 3.364-7.5 7.5-7.5s7.5 3.364 7.5 7.5v132.5h100zm0-100h-85v-15h72.5c6.893 0 12.5 5.607 12.5 12.5z"/><path d="m488.5 256c-12.406 0-22.5 10.094-22.5 22.5v87.5h-72.5c-15.163 0-27.5 12.337-27.5 27.5v117.5h45v-70h55v70h45v-232.5c0-12.406-10.094-22.5-22.5-22.5zm-107.5 137.5c0-6.893 5.607-12.5 12.5-12.5h72.5v15h-85zm115 102.5h-15v-70h-85v70h-15v-85h100v-132.5c0-4.136 3.364-7.5 7.5-7.5s7.5 3.364 7.5 7.5z"/><path d="m280.5 466h-2.5v-135h97.5c12.406 0 22.5-10.094 22.5-22.5s-10.094-22.5-22.5-22.5h-4.5v-22.048c11.528-3.274 20-13.889 20-26.452v-27.5h-55v27.5c0 12.563 8.472 23.178 20 26.452v22.048h-33.427c-3.744-33.702-32.39-60-67.073-60s-63.329 26.298-67.073 60h-33.427v-22.048c11.528-3.274 20-13.889 20-26.452v-27.5h-55v27.5c0 12.563 8.472 23.178 20 26.452v22.048h-4.5c-12.407 0-22.5 10.094-22.5 22.5s10.093 22.5 22.5 22.5h97.5v135h-2.5c-15.164 0-27.5 12.337-27.5 27.5v17.5h105v-17.5c0-15.163-12.337-27.5-27.5-27.5zm70.5-228.5v-12.5h25v12.5c0 6.893-5.607 12.5-12.5 12.5s-12.5-5.607-12.5-12.5zm-95.5 3.5c26.401 0 48.304 19.593 51.956 45h-103.912c3.652-25.407 25.554-45 51.956-45zm-120.5-3.5v-12.5h25v12.5c0 6.893-5.607 12.5-12.5 12.5s-12.5-5.607-12.5-12.5zm.5 78.5c-4.136 0-7.5-3.364-7.5-7.5s3.364-7.5 7.5-7.5h240c4.136 0 7.5 3.364 7.5 7.5s-3.364 7.5-7.5 7.5zm157.5 180h-75v-2.5c0-6.893 5.607-12.5 12.5-12.5h17.5v-150h15v150h17.5c6.893 0 12.5 5.607 12.5 12.5z"/><path d="m251.5 115.2 51.678-51.878c14.446-14.503 14.4-38.054-.102-52.5-14.197-14.143-37.067-14.395-51.576-.795-6.883-6.458-15.819-10.008-25.305-10.027-.025 0-.049 0-.074 0-9.888 0-19.189 3.842-26.197 10.822-7.025 6.998-10.904 16.313-10.924 26.229-.019 9.916 3.824 19.246 10.822 26.271zm-40.99-93.751c4.176-4.16 9.718-6.449 15.612-6.449h.044c5.909.012 11.46 2.323 15.63 6.51l9.704 9.742 9.703-9.742c4.17-4.187 9.722-6.498 15.631-6.51 5.944.007 11.47 2.279 15.656 6.449s6.498 9.722 6.51 15.631-2.279 11.47-6.449 15.656l-41.051 41.21-41.051-41.21c-4.17-4.187-6.46-9.747-6.449-15.656.012-5.909 2.324-11.46 6.51-15.631z"/><path d="m295.467 139.541 39.033 39.185 39.033-39.185c11.302-11.347 11.266-29.771-.08-41.074-10.66-10.619-27.57-11.229-38.953-1.851-11.379-9.377-28.292-8.77-38.953 1.851-11.346 11.303-11.382 29.727-.08 41.074zm10.666-30.447c2.736-2.726 6.323-4.087 9.911-4.087 3.604 0 7.211 1.376 9.95 4.126l8.506 8.54 8.506-8.54c5.465-5.485 14.375-5.506 19.861-.039 5.486 5.465 5.504 14.375.039 19.861l-28.406 28.517-28.406-28.517c-5.465-5.486-5.448-14.396.039-19.861z"/><path d="m175.5 197.127 34.818-34.953c4.968-4.986 7.696-11.609 7.682-18.647-.014-7.039-2.768-13.651-7.754-18.618-4.974-4.955-11.576-7.682-18.595-7.682-.018 0-.035 0-.053 0-5.907.011-11.512 1.952-16.098 5.522-4.586-3.57-10.191-5.512-16.098-5.522-.018 0-.035 0-.053 0-7.019 0-13.622 2.727-18.595 7.682-4.987 4.967-7.741 11.579-7.754 18.618-.014 7.038 2.714 13.661 7.682 18.647zm-24.159-61.592c2.142-2.135 4.986-3.309 8.009-3.309h.023c3.032.006 5.88 1.191 8.021 3.341l8.106 8.136 8.107-8.137c2.14-2.148 4.988-3.334 8.021-3.34h.022c3.023 0 5.867 1.174 8.01 3.309 2.148 2.14 3.334 4.988 3.34 8.02s-1.169 5.885-3.309 8.033l-24.191 24.285-24.191-24.285c-2.14-2.148-3.315-5.001-3.309-8.033s1.192-5.88 3.341-8.02z"/></g></svg>