<svg id="Capa_1" enable-background="new 0 0 511.5 511.5" height="512" viewBox="0 0 511.5 511.5" width="512" xmlns="http://www.w3.org/2000/svg"><g id="Outline_26_" fill="#233d91"><path d="m113.25 394c0-15.163-12.336-27.5-27.5-27.5s-27.5 12.337-27.5 27.5v87.5h55zm-15 72.5h-25v-72.5c0-6.893 5.607-12.5 12.5-12.5s12.5 5.607 12.5 12.5z"/><path d="m453.25 394c0-15.163-12.336-27.5-27.5-27.5s-27.5 12.337-27.5 27.5v87.5h55zm-15 72.5h-25v-72.5c0-6.893 5.607-12.5 12.5-12.5s12.5 5.607 12.5 12.5z"/><path d="m383.25 260.396v-38.289l17.197 17.197 10.606-10.607-147.803-147.803v-43.394h27.5v-15h-27.5v-22.5h-15v22.5h-27.5v15h27.5v43.394l-147.803 147.802 10.606 10.607 17.197-17.197v38.289l-127.185 101.749 9.37 11.713 17.815-14.252v151.895h455v-151.896l17.815 14.252 9.37-11.713zm-255 236.104h-85v-148.896l85-68zm120 0h-45v-98.987l45-37.5zm60 0h-45v-136.487l45 37.5zm60 0h-45v-106.013l-67.5-56.25-67.5 56.25v106.013h-45v-289.393l112.5-112.5 112.5 112.5zm100 0h-85v-216.896l85 68z"/><path d="m200.143 193.5c-.027 0-.053 0-.079 0-10.607 0-20.584 4.124-28.1 11.618-15.551 15.505-15.6 40.782-.11 56.347l55.896 56.168 28-28.136 28 28.136 55.896-56.167c15.489-15.564 15.44-40.842-.11-56.347-7.534-7.514-17.556-11.687-28.179-11.619-10.39.021-20.164 3.995-27.607 11.208-7.443-7.213-17.218-11.188-27.607-11.208-.026 0-.052 0-.079 0-10.561 0-20.495 4.091-27.999 11.524-7.482-7.41-17.384-11.504-27.922-11.524zm27.607 102.867-45.263-45.483c-9.661-9.707-9.631-25.473.069-35.144 4.684-4.67 10.9-7.24 17.509-7.24h.05c6.627.013 12.854 2.608 17.531 7.309l1.835 1.844c-6.191 14.506-3.411 31.97 8.375 43.813l17.314 17.398zm10.806-80.627c4.684-4.67 10.9-7.24 17.509-7.24h.049c6.627.013 12.854 2.608 17.531 7.309l10.105 10.155 10.105-10.155c4.678-4.7 10.904-7.296 17.531-7.309h.05c6.609 0 12.825 2.57 17.509 7.24 9.699 9.671 9.729 25.437.068 35.146l-45.263 45.481-45.263-45.481c-9.661-9.709-9.631-25.475.069-35.146z"/></g></svg>