<svg id="Capa_1" enable-background="new 0 0 511.005 511.005" height="512" viewBox="0 0 511.005 511.005" width="512" xmlns="http://www.w3.org/2000/svg"><g id="Outline_40_" fill="#233d91"><path d="m72.503 190.003c14.061 0 25.5-11.439 25.5-25.5s-11.439-25.5-25.5-25.5-25.5 11.439-25.5 25.5 11.439 25.5 25.5 25.5zm0-36c5.79 0 10.5 4.71 10.5 10.5s-4.71 10.5-10.5 10.5-10.5-4.71-10.5-10.5 4.71-10.5 10.5-10.5z"/><path d="m506.325 203.286c7.329-12.543 5.831-27.943-2.958-38.783 8.789-10.84 10.287-26.24 2.958-38.783-7.319-12.527-21.561-18.924-35.435-16.769-5.075-12.954-17.781-21.948-32.388-21.948-6.017 0-11.699 1.546-16.67 4.246-19.938-21.751-44.243-39.613-70.865-52.081-.17-10-4.058-19.947-11.679-27.546-7.535-7.514-17.564-11.675-28.179-11.619-10.39.021-20.164 3.995-27.607 11.208-7.443-7.213-17.218-11.188-27.607-11.208-.026 0-.052 0-.079 0-10.561 0-20.495 4.091-27.999 11.524-7.482-7.411-17.383-11.504-27.921-11.524-.027 0-.053 0-.079 0-10.607 0-20.584 4.124-28.1 11.618-7.618 7.595-11.506 17.536-11.679 27.532-23.792 11.121-45.299 26.207-63.988 44.896-2.338 2.338-4.632 4.75-6.876 7.2-4.971-2.7-10.654-4.246-16.671-4.246-14.607 0-27.313 8.994-32.388 21.947-13.874-2.149-28.116 4.242-35.435 16.77-7.329 12.543-5.831 27.943 2.958 38.783-8.789 10.84-10.287 26.24-2.958 38.783 5.746 9.835 15.762 15.868 26.513 16.974-.787 7.726-1.191 15.511-1.191 23.243v62.5h-30v45h15v105h-15v55h163v-7.5c0-93.527-7.669-167.352-23.419-225.358 25.477-10.859 49.139-28.399 69.455-51.868 21.885-25.282 37.802-55.329 46.464-86.715 8.662 31.386 24.579 61.432 46.464 86.715 20.316 23.469 43.977 41.009 69.455 51.868-15.75 58.007-23.419 131.832-23.419 225.358v7.5h163v-55h-15v-105h15v-45h-30v-62.5c0-7.732-.403-15.518-1.191-23.245 10.752-1.108 20.769-7.137 26.514-16.972zm-166.927-135.317c3.949-3.968 6.882-8.569 8.811-13.477 23.323 11.478 44.627 27.403 62.287 46.597-1.78 2.401-3.273 5.029-4.383 7.862-6.879-1.066-13.846-.026-20.018 2.814-15.66-15.527-33.599-27.938-53.454-37.008zm-157.09-45.726c4.684-4.67 10.9-7.24 17.509-7.24h.05c6.627.013 12.854 2.608 17.531 7.309l1.835 1.844c-6.191 14.506-3.411 31.97 8.375 43.813l17.314 17.398-17.419 17.503-45.263-45.481c-9.662-9.709-9.631-25.475.068-35.146zm-75.652 72.413c16.501-16.501 35.355-29.985 56.134-40.181 1.93 4.914 4.865 9.521 8.818 13.493l6.763 6.796c-19.748 9.067-37.982 21.68-53.449 37.004-6.174-2.846-13.147-3.887-20.031-2.817-1.11-2.834-2.605-5.465-4.386-7.867 2.009-2.187 4.062-4.339 6.151-6.428zm-89.025 101.064c-4.958-8.487-2.707-19.314 5.238-25.185l8.164-6.032-8.164-6.032c-7.945-5.87-10.197-16.697-5.238-25.185 4.998-8.553 15.702-12.065 24.9-8.168l9.18 3.891 1.192-9.899c1.174-9.752 9.601-17.106 19.599-17.106s18.425 7.354 19.599 17.106l1.192 9.899 9.18-3.891c9.199-3.897 19.902-.385 24.9 8.168 4.958 8.487 2.707 19.314-5.238 25.185l-8.164 6.032 8.164 6.032c7.945 5.87 10.197 16.697 5.238 25.185-4.998 8.553-15.702 12.066-24.9 8.168l-9.18-3.891-1.192 9.899c-1.174 9.752-9.601 17.106-19.599 17.106s-18.425-7.354-19.599-17.106l-1.192-9.899-9.18 3.891c-9.198 3.897-19.901.385-24.9-8.168zm52.392 46.188c-.004.534-.021 1.059-.021 1.595v62.5h-25v-62.5c0-4.752.166-9.526.485-14.292 5.913 7.236 14.699 12.005 24.536 12.697zm-55.02 79.095h85v15h-85zm70 30v105h-55v-105zm15 145h-85v-25h85zm47.983 0h-32.983v-40h-15v-105h15v-45h-30v-15.197c13.748-.668 27.299-3.166 40.461-7.401 14.74 54.949 22.127 124.665 22.522 212.598zm-62.983-220.215v-32.285c0-1.291.022-2.565.05-3.834 9.03-3.471 16.296-10.571 19.838-19.613 13.871 2.148 28.116-4.242 35.435-16.77 7.329-12.543 5.831-27.943-2.958-38.783 8.789-10.84 10.287-26.24 2.958-38.783-.994-1.701-2.124-3.277-3.355-4.746 15.235-14.729 33.263-26.647 52.736-34.818l37.796 37.98 19.419-19.514c-9.066 82.128-74.905 166.541-161.919 171.166zm153.237-218.399c-9.661-9.709-9.631-25.475.068-35.146 4.684-4.67 10.9-7.24 17.509-7.24h.049c6.627.013 12.854 2.608 17.531 7.309l10.105 10.155 10.105-10.155c4.678-4.7 10.904-7.296 17.531-7.309h.05c6.609 0 12.825 2.57 17.509 7.24 9.699 9.671 9.729 25.437.068 35.146l-45.263 45.481zm25.843 47.233 19.419 19.514 37.797-37.98c19.65 8.217 37.359 19.909 52.745 34.808-1.234 1.472-2.369 3.052-3.365 4.757-7.329 12.543-5.831 27.943 2.958 38.783-8.789 10.84-10.287 26.24-2.958 38.783 7.319 12.528 21.562 18.924 35.435 16.769 3.542 9.042 10.808 16.143 19.838 19.614.028 1.269.05 2.544.05 3.834v32.285c-87.013-4.626-152.853-89.039-161.919-171.167zm131.92 351.381v40h-32.983c.395-87.933 7.782-157.648 22.522-212.599 13.162 4.236 26.714 6.733 40.461 7.401v15.197h-30v45h15v105h-15zm100 40h-85v-25h85zm-70-40v-105h55v105zm70-135v15h-85v-15zm-55.021-79.095c9.837-.691 18.624-5.461 24.536-12.697.319 4.766.485 9.54.485 14.292v62.5h-25v-62.5c0-.536-.017-1.062-.021-1.595zm47.154-71.373c7.945 5.87 10.197 16.697 5.238 25.185-4.998 8.553-15.702 12.066-24.9 8.168l-9.18-3.891-1.192 9.899c-1.174 9.752-9.601 17.106-19.599 17.106s-18.425-7.354-19.599-17.106l-1.192-9.899-9.18 3.891c-9.198 3.897-19.901.386-24.9-8.168-4.958-8.487-2.707-19.314 5.238-25.185l8.164-6.032-8.164-6.032c-7.945-5.87-10.197-16.697-5.238-25.185 4.998-8.553 15.702-12.065 24.9-8.168l9.18 3.891 1.192-9.899c1.174-9.752 9.601-17.106 19.599-17.106s18.425 7.354 19.599 17.106l1.192 9.899 9.18-3.891c9.198-3.897 19.901-.385 24.9 8.168 4.958 8.487 2.707 19.314-5.238 25.185l-8.164 6.032z"/><path d="m438.503 139.003c-14.061 0-25.5 11.439-25.5 25.5s11.439 25.5 25.5 25.5 25.5-11.439 25.5-25.5-11.44-25.5-25.5-25.5zm0 36c-5.79 0-10.5-4.71-10.5-10.5s4.71-10.5 10.5-10.5 10.5 4.71 10.5 10.5-4.711 10.5-10.5 10.5z"/></g></svg>