<svg id="Capa_1" enable-background="new 0 0 510.836 510.836" height="512" viewBox="0 0 510.836 510.836" width="512" xmlns="http://www.w3.org/2000/svg"><g id="Outline_3_" fill="#233d91"><path d="m387.918 95.836v-95.836l-300 97.895v412.942h335v-415h-35zm-15-75.163v75.164h-230.34zm35 475.163h-305v-385h305z"/><path d="m175.418 429.836h160v15h-160z"/><path d="m205.418 459.836h100v15h-100z"/><path d="m177.918 391.336v7.5h155v-7.5c0-23.435 19.065-42.5 42.5-42.5h7.5v-165h-7.5c-23.435 0-42.5-19.065-42.5-42.5v-7.5h-155v7.5c0 23.435-19.065 42.5-42.5 42.5h-7.5v165h7.5c23.435 0 42.5 19.066 42.5 42.5zm-35-192.986c25.721-3.365 46.148-23.792 49.513-49.513h125.975c3.364 25.721 23.792 46.148 49.513 49.513v135.974c-25.721 3.365-46.148 23.792-49.513 49.513h-125.975c-3.364-25.721-23.792-46.148-49.513-49.513z"/><path d="m255.418 309.833 28 28.136 55.896-56.167c15.489-15.565 15.44-40.842-.109-56.346-7.517-7.495-17.492-11.62-28.101-11.62-.025 0-.053 0-.079 0-10.39.02-20.164 3.995-27.606 11.208-7.443-7.213-17.219-11.188-27.608-11.208-.026 0-.052 0-.078 0-10.56 0-20.495 4.092-27.999 11.524-7.482-7.41-17.383-11.504-27.922-11.524-.026 0-.053 0-.079 0-10.607 0-20.584 4.125-28.1 11.619-15.55 15.505-15.599 40.782-.109 56.347l55.896 56.167zm-17.194-73.756c4.684-4.67 10.9-7.241 17.509-7.241h.049c6.628.013 12.854 2.608 17.531 7.309l10.105 10.155 10.105-10.155c4.677-4.7 10.903-7.296 17.53-7.309h.05c6.608 0 12.825 2.57 17.509 7.241 9.699 9.67 9.729 25.436.068 35.144l-45.263 45.483-45.263-45.483c-9.66-9.708-9.629-25.473.07-35.144zm-56 0c4.684-4.671 10.899-7.241 17.509-7.241h.049c6.628.013 12.854 2.608 17.531 7.309l1.835 1.844c-6.19 14.506-3.411 31.969 8.375 43.813l17.314 17.398-17.419 17.504-45.263-45.483c-9.661-9.708-9.63-25.473.069-35.144z"/></g></svg>