<svg id="Capa_1" enable-background="new 0 0 511 511" height="512" viewBox="0 0 511 511" width="512" xmlns="http://www.w3.org/2000/svg"><g id="Outline_27_" fill="#233d91"><path d="m477.63 357.198-103.63-26.294-43.647-60.904h-25.151l13 60h-54.985l-6.847-24.896c-2.446-8.893-10.595-15.104-19.818-15.104-11.332 0-20.552 9.22-20.552 20.553v19.447h-39.865l-8.983-17.966c-6.795-13.591-20.456-22.034-35.652-22.034h-7.5v30h-64.427c5.496-10.157 13.818-23.136 21.874-28.123 6.743-4.174 15.5-6.764 24.772-9.505 18.023-5.33 38.452-11.37 55.017-31.041 14.7-17.457 17.757-44.825 18.379-54.009l69.818-70.158c20.777-20.878 20.711-54.783-.146-75.58-10.08-10.053-23.46-15.584-37.687-15.584-.035 0-.072 0-.106 0-14.266.028-27.667 5.614-37.734 15.73l-1.486 1.493-1.487-1.493c-10.068-10.116-23.469-15.703-37.735-15.73-.036 0-.07 0-.106 0-14.226 0-27.607 5.532-37.688 15.583-.702.7-1.375 1.417-2.03 2.145l-1.988-1.997c-10.066-10.117-23.468-15.704-37.734-15.731-.036 0-.07 0-.106 0-14.226 0-27.607 5.532-37.688 15.584-20.858 20.797-20.924 54.702-.146 75.58l70.216 70.558c.846 5.232 2.427 19.858-3.838 31.135-6.421 11.559-13.492 14.88-21.679 18.726-8.804 4.135-18.783 8.821-26.414 23.447-10.934 20.956-.576 45.677 4.688 55.819l-38.539 50.1v39.538l65.627 27.521c8.232 18.251 26.587 30.992 47.873 30.992 20.901 0 38.982-12.279 47.424-30h162.152c8.442 17.721 26.524 30 47.424 30s38.982-12.279 47.424-30h57.24l10.297-4.806c15.515-7.24 25.539-22.981 25.539-40.102 0-20.27-13.723-37.909-33.37-42.894zm-14.63 11.763 10.94 2.776c9.569 2.428 16.997 9.403 20.253 18.263h-21.919l-9.274-7.949zm-108.102-38.961h-21.349l-9.251-42.697zm-123.898-19.447c0-3.062 2.491-5.553 5.552-5.553 2.492 0 4.693 1.678 5.354 4.08l5.753 20.92h-16.659zm-92-4.411c6.321 1.982 11.658 6.444 14.736 12.602l5.629 11.256h-12.314l-8.051-6.193zm-33.15-243.937c7.248-7.227 16.868-11.205 27.097-11.205h.076c10.257.02 19.892 4.037 27.131 11.311l12.119 12.179 12.118-12.179c7.239-7.273 16.875-11.29 27.131-11.311h.077c10.228 0 19.849 3.978 27.098 11.205 15.006 14.964 15.054 39.357.105 54.379l-66.529 66.852-66.53-66.852c-14.948-15.022-14.901-39.415.107-54.379zm-79.652 54.379c-14.948-15.021-14.901-39.415.105-54.379 7.249-7.227 16.869-11.205 27.098-11.205h.077c10.257.02 19.892 4.037 27.131 11.311l4.133 4.154c-9.409 19.819-5.966 44.285 10.37 60.7l26.808 26.938-29.192 29.333zm20.951 161.385c5.29-10.139 11.557-13.082 19.492-16.81 9.207-4.323 19.641-9.225 28.415-25.017 8.051-14.493 6.861-31.708 5.732-39.542l31.712-31.866 32.093 32.249c-.638 8.261-3.398 31.11-14.829 44.685-13.664 16.226-31.016 21.356-47.796 26.318-10.265 3.035-19.96 5.902-28.415 11.136-10.575 6.546-19.85 20.516-25.866 31.298-3.406-9.346-5.963-22.053-.538-32.451zm66.351 182.031c-20.678 0-37.5-16.822-37.5-37.5s16.822-37.5 37.5-37.5 37.5 16.822 37.5 37.5-16.822 37.5-37.5 37.5zm51.956-30c.352-2.451.544-4.953.544-7.5 0-28.948-23.551-52.5-52.5-52.5s-52.5 23.552-52.5 52.5c0 1.127.048 2.243.118 3.353l-46.118-19.34v-24.462l36.193-47.051h77.756l13 10h55.051v52.903l22.926 32.097zm205.044 30c-20.678 0-37.5-16.822-37.5-37.5s16.822-37.5 37.5-37.5 37.5 16.822 37.5 37.5-16.822 37.5-37.5 37.5zm108.617-33.397-7.281 3.397h-49.38c.352-2.451.544-4.953.544-7.5 0-28.948-23.552-52.5-52.5-52.5s-52.5 23.552-52.5 52.5c0 2.547.192 5.049.544 7.5h-80.184l-26.36-36.903v-48.097h156.563l79.437 20.155v23.794l18.726 16.051h28.839c-1.606 9.34-7.698 17.518-16.448 21.603z"/><path d="m237.5 360h40v15h-40z"/></g></svg>