<svg id="Capa_1" enable-background="new 0 0 511 511" height="512" viewBox="0 0 511 511" width="512" xmlns="http://www.w3.org/2000/svg"><g id="Outline_36_" fill="#233d91"><path d="m413 240.394v-152.894c0-26.191-21.309-47.5-47.5-47.5h-32.5v-12.5c0-15.163-12.336-27.5-27.5-27.5h-100c-15.164 0-27.5 12.337-27.5 27.5v12.5h-32.5c-26.191 0-47.5 21.309-47.5 47.5v152.894l-30 30v90.606h60v150h255v-150h60v-90.606zm-220-212.894c0-6.893 5.607-12.5 12.5-12.5h100c6.893 0 12.5 5.607 12.5 12.5v12.5h-125zm-80 60c0-17.921 14.58-32.5 32.5-32.5h220c17.92 0 32.5 14.579 32.5 32.5v148.5h-285zm-4.394 163.5h293.787l15 15h-323.787zm259.394 245h-225v-175h225zm60-150h-45v-25h17.5v-15h-290v15h17.5v25h-45v-65h345z"/><path d="m367 75.5h15v16h-15z"/><path d="m367 105.5h15v16h-15z"/><path d="m255.5 68c-42.734 0-77.5 34.767-77.5 77.5s34.766 77.5 77.5 77.5 77.5-34.767 77.5-77.5-34.766-77.5-77.5-77.5zm0 140c-34.462 0-62.5-28.037-62.5-62.5s28.038-62.5 62.5-62.5 62.5 28.037 62.5 62.5-28.038 62.5-62.5 62.5z"/><path d="m255.5 103c-23.435 0-42.5 19.065-42.5 42.5s19.065 42.5 42.5 42.5 42.5-19.065 42.5-42.5-19.065-42.5-42.5-42.5zm0 70c-15.164 0-27.5-12.337-27.5-27.5s12.336-27.5 27.5-27.5 27.5 12.337 27.5 27.5-12.336 27.5-27.5 27.5z"/><path d="m227.5 472.133 28-28.136 28 28.136 55.896-56.167c15.489-15.564 15.44-40.842-.11-56.347-7.516-7.495-17.492-11.619-28.099-11.619-.026 0-.054 0-.08 0-10.39.021-20.164 3.995-27.607 11.208-7.443-7.213-17.218-11.188-27.607-11.208-.026 0-.052 0-.079 0-10.561 0-20.495 4.091-27.999 11.524-7.482-7.411-17.383-11.504-27.921-11.524-.027 0-.053 0-.079 0-10.607 0-20.584 4.124-28.1 11.618-15.551 15.505-15.6 40.782-.109 56.348zm10.806-101.893c4.684-4.67 10.9-7.24 17.509-7.24h.049c6.627.013 12.854 2.608 17.531 7.309l10.105 10.155 10.105-10.155c4.678-4.7 10.904-7.296 17.531-7.309h.05c6.609 0 12.825 2.57 17.509 7.24 9.699 9.671 9.729 25.437.068 35.146l-45.263 45.481-45.263-45.481c-9.661-9.709-9.631-25.475.069-35.146zm-56 0c4.684-4.67 10.9-7.24 17.509-7.24h.05c6.627.013 12.854 2.608 17.531 7.309l1.835 1.844c-6.191 14.506-3.411 31.97 8.375 43.813l17.314 17.398-17.42 17.503-45.263-45.481c-9.661-9.709-9.631-25.475.069-35.146z"/></g></svg>