<svg id="Capa_1" enable-background="new 0 0 511 511" height="512" viewBox="0 0 511 511" width="512" xmlns="http://www.w3.org/2000/svg"><g id="Outline"><path d="m473 406v-271.142c11.234-1.248 20-10.796 20-22.358 0-12.407-10.093-22.5-22.5-22.5h-7.786c-3.842-50.271-45.976-90-97.214-90h-220c-51.238 0-93.372 39.729-97.214 90h-7.786c-12.407 0-22.5 10.093-22.5 22.5 0 11.562 8.766 21.11 20 22.358v271.142h-38v105h511v-105zm-2.5-301c4.136 0 7.5 3.364 7.5 7.5s-3.364 7.5-7.5 7.5h-181.106l14.942-15zm-12.5 30v271h-15v-271zm-114.695 0h84.695v84.695c-45.036-3.631-81.064-39.659-84.695-84.695zm84.695 99.734v171.266h-25v-176.026c7.974 2.535 16.347 4.161 25 4.76zm-221.422 91.266 14-35h69.845l14 35zm56.422 15v65h-15v-65zm15 0h48.578l-26-65h-90.155l-26 65h48.577v65h-110v-182.083c21.387-10.579 38.772-28.063 49.22-49.525 9.642 6.889 21.139 10.608 33.28 10.608 20.896 0 39.938-11.506 50-29.144 10.062 17.637 29.104 29.144 50 29.144 12.141 0 23.638-3.719 33.28-10.607 10.448 21.462 27.833 38.946 49.22 49.525v182.082h-110zm-195-121.305v-84.695h84.695c-3.631 45.036-39.659 81.064-84.695 84.695zm25 10.279v176.026h-25v-171.266c8.653-.599 17.026-2.225 25-4.76zm147.5-97.203-45.266-45.441c-4.678-4.696-7.247-10.933-7.234-17.562s2.606-12.855 7.303-17.534c4.684-4.666 10.901-7.234 17.511-7.234h.049c6.629.013 12.855 2.606 17.534 7.302l10.103 10.142 10.103-10.142c4.678-4.696 10.905-7.289 17.533-7.302h.05c6.61 0 12.828 2.568 17.512 7.234 4.696 4.678 7.29 10.905 7.303 17.534.013 6.628-2.557 12.865-7.234 17.562zm18.952 2.229h53.814c.597 8.618 2.212 16.959 4.729 24.904-7.663 6.539-17.273 10.096-27.495 10.096-17.367 0-33-10.75-39.411-26.604zm-29.541 8.396c-6.411 15.854-22.044 26.604-39.411 26.604-10.222 0-19.832-3.557-27.495-10.096 2.517-7.945 4.132-16.286 4.729-24.904h53.814zm-99.411-128.396h220c42.961 0 78.34 33.013 82.144 75h-130.125c3.586-6.076 5.495-13.022 5.481-20.261-.021-10.635-4.182-20.626-11.717-28.131-7.516-7.488-17.491-11.608-28.097-11.608-.026 0-.053 0-.079 0-10.389.021-20.164 3.992-27.607 11.199-7.443-7.207-17.218-11.179-27.607-11.199-.026 0-.052 0-.079 0-10.605 0-20.582 4.121-28.097 11.607-7.535 7.505-11.696 17.496-11.717 28.131-.014 7.24 1.896 14.186 5.481 20.261h-130.125c3.804-41.986 39.183-74.999 82.144-74.999zm-112.5 97.5c0-4.136 3.364-7.5 7.5-7.5h166.164l14.942 15h-181.106c-4.136 0-7.5-3.364-7.5-7.5zm35 22.5v271h-15v-271zm110 361h-163v-75h163zm140 0h-125v-15h125zm0-30h-125v-15h125zm0-30h-125v-15h125zm178 60h-163v-75h163z" fill="#233d91"/></g></svg>