<svg id="Capa_1" enable-background="new 0 0 511.453 511.453" height="512" viewBox="0 0 511.453 511.453" width="512" xmlns="http://www.w3.org/2000/svg"><g id="Outline_4_" fill="#233d91"><path d="m491.583 85.396c-19.256-19.168-47.38-24.117-71.237-14.909-4.123-16.358-12.536-31.168-24.691-43.262-36.592-36.397-96.018-36.287-132.471.252l-7.458 7.481-7.46-7.483c-36.45-36.537-95.875-36.648-132.469-.25-17.731 17.637-27.524 41.115-27.572 66.109-.047 24.213 9.056 47.038 25.687 64.537-3.174 2.138-6.163 4.604-8.923 7.38l-2.263 2.276-2.264-2.277c-11.06-11.125-25.783-17.268-41.457-17.298-.039 0-.076 0-.115 0-15.63 0-30.332 6.084-41.405 17.137-22.91 22.866-22.982 60.144-.161 83.098l77.65 78.105c-.414 2.387-1.341 4.646-2.757 6.64-5.436 7.648-10.991 17.731-10.991 34.52 0 20.573 8.277 31.215 15.58 40.604 6.664 8.569 12.42 15.969 12.42 31.396s-5.756 22.827-12.42 31.396c-7.303 9.389-15.58 20.031-15.58 40.604h15c0-15.427 5.756-22.827 12.42-31.396 7.303-9.389 15.58-20.031 15.58-40.604s-8.277-31.215-15.58-40.604c-6.664-8.569-12.42-15.969-12.42-31.396 0-11.84 3.285-18.889 8.219-25.832 3.145-4.427 5.036-9.521 5.591-14.883l78.092-78.55c2.704-2.72 5.076-5.647 7.138-8.722l52.979 53.106c.193 16.933 3.792 34.001 10.725 50.757 2.191 5.296 3.257 11.224 3.257 18.123 0 16.259-5.797 24.023-12.51 33.013-7.261 9.725-15.49 20.746-15.49 41.987s8.229 32.263 15.49 41.987c6.713 8.99 12.51 16.754 12.51 33.013h15c0-21.241-8.229-32.263-15.49-41.987-6.713-8.99-12.51-16.754-12.51-33.013s5.797-24.023 12.51-33.013c7.261-9.725 15.49-20.746 15.49-41.987 0-8.904-1.438-16.708-4.396-23.857-6.18-14.938-9.397-30.089-9.586-45.061l72.471-72.652 50.287 50.444c-.37 2.455-1.204 4.84-2.478 7.014-4.104 6.999-8.298 16.227-8.298 31.611 0 19.104 6.49 29.061 12.217 37.846 5.25 8.053 9.783 15.008 9.783 29.654s-4.533 21.601-9.783 29.654c-5.727 8.785-12.217 18.742-12.217 37.846s6.49 29.061 12.217 37.846c5.25 8.053 9.783 15.008 9.783 29.654h15c0-19.104-6.49-29.061-12.217-37.846-5.25-8.053-9.783-15.008-9.783-29.654s4.533-21.601 9.783-29.654c5.727-8.785 12.217-18.742 12.217-37.846s-6.49-29.061-12.217-37.846c-5.25-8.053-9.783-15.008-9.783-29.654 0-11.764 2.998-18.499 6.237-24.024 2.558-4.362 4.107-9.217 4.586-14.199l90.716-91c12.584-12.623 19.494-29.387 19.46-47.205-.035-17.815-7.01-34.552-19.643-47.126zm-314.091 152.217-74.766 75.202-74.766-75.202c-17-17.101-16.946-44.872.121-61.906 8.241-8.227 19.18-12.754 30.809-12.754h.086c11.662.022 22.618 4.594 30.849 12.874l12.901 12.978 12.9-12.978c8.231-8.279 19.187-12.851 30.848-12.874h.087c11.629 0 22.568 4.527 30.811 12.754 17.066 17.035 17.12 44.805.12 61.906zm78.234 41.22-53.5-53.629c6.732-20.458 1.982-43.905-14.258-60.114-11.075-11.054-25.774-17.137-41.405-17.137-.038 0-.079 0-.117 0-6.323.012-12.486 1.036-18.322 2.964l-1.967-1.971c-14.828-14.863-22.972-34.603-22.931-55.583.04-20.983 8.262-40.694 23.15-55.502 30.737-30.573 80.654-30.481 111.27.208l18.081 18.139 18.079-18.137c30.617-30.691 80.534-30.785 111.27-.211 11.083 11.026 18.461 24.738 21.541 39.88-3.316 2.285-6.479 4.887-9.422 7.84l-3.468 3.479-3.468-3.479c-25.975-26.055-68.315-26.137-94.389-.183-12.633 12.574-19.608 29.311-19.644 47.129-.034 17.817 6.876 34.582 19.46 47.205l29.439 29.531zm225.417-109.694-87.417 87.69-87.417-87.69c-9.753-9.784-15.109-22.777-15.083-36.586.027-13.809 5.434-26.78 15.226-36.526 10.083-10.037 23.3-15.051 36.52-15.051 13.283 0 26.57 5.067 36.664 15.192l14.091 14.136 14.091-14.136c20.137-20.201 52.967-20.265 73.184-.141 9.792 9.746 15.198 22.717 15.226 36.526.025 13.81-5.332 26.802-15.085 36.586z"/><path d="m240.844 347.315-42.23-6.136-18.887-38.268-18.887 38.268-42.23 6.136 30.559 29.787-7.214 42.061 37.772-19.859 37.772 19.859-7.214-42.061zm-43.267 44.427-17.851-9.384-17.851 9.384 3.409-19.876-14.441-14.077 19.957-2.9 8.926-18.085 8.926 18.085 19.957 2.9-14.441 14.077z"/><path d="m332.726 324.953c-20.678 0-37.5 16.822-37.5 37.5s16.822 37.5 37.5 37.5 37.5-16.822 37.5-37.5-16.822-37.5-37.5-37.5zm0 60c-12.406 0-22.5-10.093-22.5-22.5s10.094-22.5 22.5-22.5 22.5 10.093 22.5 22.5-10.093 22.5-22.5 22.5z"/><path d="m454.726 342.953c15.163 0 27.5-12.336 27.5-27.5s-12.337-27.5-27.5-27.5-27.5 12.336-27.5 27.5 12.337 27.5 27.5 27.5zm0-40c6.893 0 12.5 5.607 12.5 12.5s-5.607 12.5-12.5 12.5-12.5-5.607-12.5-12.5 5.608-12.5 12.5-12.5z"/><path d="m187.726 446.953c-15.163 0-27.5 12.336-27.5 27.5s12.337 27.5 27.5 27.5 27.5-12.336 27.5-27.5-12.337-27.5-27.5-27.5zm0 40c-6.893 0-12.5-5.607-12.5-12.5s5.607-12.5 12.5-12.5 12.5 5.607 12.5 12.5-5.607 12.5-12.5 12.5z"/><path d="m39.726 320.953c-15.163 0-27.5 12.336-27.5 27.5s12.337 27.5 27.5 27.5 27.5-12.336 27.5-27.5-12.337-27.5-27.5-27.5zm0 40c-6.893 0-12.5-5.607-12.5-12.5s5.607-12.5 12.5-12.5 12.5 5.607 12.5 12.5-5.607 12.5-12.5 12.5z"/><path d="m454.726 412.953c-17.921 0-32.5 14.58-32.5 32.5s14.579 32.5 32.5 32.5 32.5-14.58 32.5-32.5-14.579-32.5-32.5-32.5zm0 50c-9.649 0-17.5-7.851-17.5-17.5s7.851-17.5 17.5-17.5 17.5 7.851 17.5 17.5-7.85 17.5-17.5 17.5z"/><path d="m32.726 422.953c-17.921 0-32.5 14.58-32.5 32.5s14.579 32.5 32.5 32.5 32.5-14.58 32.5-32.5-14.579-32.5-32.5-32.5zm0 50c-9.649 0-17.5-7.851-17.5-17.5s7.851-17.5 17.5-17.5 17.5 7.851 17.5 17.5-7.85 17.5-17.5 17.5z"/><path d="m306.226 424.953h15v15h-15z"/><path d="m306.226 474.953h15v15h-15z"/><path d="m331.226 449.953h15v15h-15z"/><path d="m281.226 449.953h15v15h-15z"/><path d="m33.226 46.953h15v15h-15z"/><path d="m33.226 96.953h15v15h-15z"/><path d="m58.226 71.953h15v15h-15z"/><path d="m8.226 71.953h15v15h-15z"/></g></svg>