<svg id="Capa_1" enable-background="new 0 0 511 511" height="512" viewBox="0 0 511 511" width="512" xmlns="http://www.w3.org/2000/svg"><g id="Outline_29_" fill="#233d91"><path d="m484.065 511-37.128-35.848 35.482-39.152h-79.419v-34h-54v-36.913l-36-20v-9.191l-50-40v-23.896h15.5v-15h-15.5v-17.5h-15v17.5h-15.5v15h15.5v23.896l-50 40v9.191l-36 20v36.913h-54v34h-79.419l35.481 39.152-37.127 35.848h126.065v-34h205v34zm-81.065-60h45.581l-22.519 24.848 20.873 20.152h-73.935v-19h30zm-90-88.753 21 11.666v28.087h-21zm-100-19.143 42.5-34 42.5 34v58.896h-18v-25.5c0-13.51-10.99-24.5-24.5-24.5s-24.5 10.99-24.5 24.5v25.5h-18zm52 33.396v25.5h-19v-25.5c0-5.238 4.262-9.5 9.5-9.5s9.5 4.262 9.5 9.5zm-88-2.587 21-11.666v39.753h-21zm-39 122.087h-73.935l20.872-20.152-22.518-24.848h45.581v26h30zm-15-34v-45h265v45z"/><path d="m255.5 223.314 65.408-65.407c17.471-17.471 27.092-40.7 27.092-65.407 0-51.005-41.495-92.5-92.5-92.5s-92.5 41.495-92.5 92.5c0 24.707 9.621 47.936 27.092 65.407zm0-208.314c42.733 0 77.5 34.767 77.5 77.5 0 20.701-8.062 40.163-22.699 54.801l-54.801 54.801-54.801-54.801v.001c-14.637-14.639-22.699-34.101-22.699-54.802 0-42.733 34.767-77.5 77.5-77.5z"/><path d="m255.5 162.376 47.463-47.647c13.398-13.45 13.355-35.293-.095-48.691-6.499-6.476-15.124-10.038-24.296-10.038-.022 0-.047 0-.069 0-8.586.017-16.686 3.154-23.003 8.871-6.319-5.718-14.418-8.854-23.004-8.871-.022 0-.046 0-.068 0-9.171 0-17.797 3.563-24.296 10.037-13.45 13.398-13.493 35.241-.095 48.691zm-36.782-85.712c3.668-3.653 8.535-5.664 13.711-5.664h.038c5.19.011 10.065 2.041 13.729 5.719l9.305 9.338 9.305-9.339c3.662-3.677 8.538-5.707 13.728-5.718h.039c5.176 0 10.044 2.011 13.711 5.664 7.591 7.562 7.614 19.888.054 27.479l-36.838 36.979-36.836-36.979c-7.56-7.591-7.537-19.917.054-27.479z"/></g></svg>