<svg id="Capa_1" enable-background="new 0 0 511.059 511.059" height="512" viewBox="0 0 511.059 511.059" width="512" xmlns="http://www.w3.org/2000/svg"><g id="Outline_28_" fill="#233d91"><path d="m473.529 0h-286c-20.678 0-37.5 16.822-37.5 37.5v164.5h-112.5c-20.678 0-37.5 16.822-37.5 37.5v172c0 20.678 16.822 37.5 37.5 37.5h36.5v62.059l139.098-62.059h110.402c20.678 0 37.5-16.822 37.5-37.5v-136.349l76 33.907v-62.058h36.5c20.678 0 37.5-16.822 37.5-37.5v-172c0-20.678-16.822-37.5-37.5-37.5zm-127.5 411.5c0 12.406-10.094 22.5-22.5 22.5h-113.597l-120.903 53.941v-53.941h-51.5c-12.406 0-22.5-10.094-22.5-22.5v-172c0-12.406 10.094-22.5 22.5-22.5h113.255c3.484 17.096 18.635 30 36.745 30h110.402l48.098 21.459zm150-202c0 12.406-10.094 22.5-22.5 22.5h-51.5v53.941l-120.902-53.941h-113.598c-12.406 0-22.5-10.094-22.5-22.5v-172c0-12.406 10.094-22.5 22.5-22.5h286c12.406 0 22.5 10.094 22.5 22.5z"/><path d="m390.597 80.191 19.269-14.274-14.508-31.917h-43.658l-14.508 31.917 19.269 14.274c-9.651 2.524-18.466 7.133-25.932 13.319-7.466-6.186-16.282-10.795-25.932-13.319l19.269-14.274-14.508-31.917h-43.658l-14.508 31.917 19.269 14.274c-28.982 7.58-50.432 33.984-50.432 65.309 0 37.22 30.28 67.5 67.5 67.5 16.326 0 31.314-5.828 43-15.51 11.686 9.682 26.674 15.51 43 15.51 37.22 0 67.5-30.28 67.5-67.5 0-31.325-21.45-57.729-50.432-65.309zm-34.731-19.108 5.492-12.083h24.342l5.492 12.083-17.663 13.084zm-86 0 5.492-12.083h24.342l5.492 12.083-17.663 13.084zm50.21 125.565c-8.954 7.098-20.26 11.352-32.547 11.352-28.948 0-52.5-23.552-52.5-52.5s23.552-52.5 52.5-52.5c12.287 0 23.592 4.254 32.547 11.352-8.796 11.4-14.047 25.669-14.047 41.148s5.251 29.748 14.047 41.148zm10.453-11.082c-5.978-8.523-9.5-18.888-9.5-30.066s3.522-21.542 9.5-30.066c5.978 8.523 9.5 18.888 9.5 30.066s-3.522 21.542-9.5 30.066zm43 22.434c-12.287 0-23.592-4.254-32.547-11.352 8.796-11.4 14.047-25.669 14.047-41.148s-5.25-29.748-14.047-41.148c8.955-7.098 20.26-11.352 32.547-11.352 28.948 0 52.5 23.552 52.5 52.5s-23.551 52.5-52.5 52.5z"/><path d="m80.029 314.5c0 9.649-7.851 17.5-17.5 17.5s-17.5-7.851-17.5-17.5v-25h-15v25c0 15.339 10.685 28.221 25 31.617v33.383h15v-33.383c14.315-3.396 25-16.278 25-31.617v-25h-15z"/><path d="m110.029 380h47.5v-15h-32.5v-23h22.5v-15h-22.5v-23h32.5v-15h-47.5z"/><path d="m200.529 327h-2c-6.341 0-11.5-5.159-11.5-11.5s5.159-11.5 11.5-11.5h25v-15h-25c-14.612 0-26.5 11.888-26.5 26.5s11.888 26.5 26.5 26.5h2c6.341 0 11.5 5.159 11.5 11.5s-5.159 11.5-11.5 11.5h-27v15h27c14.612 0 26.5-11.888 26.5-26.5s-11.887-26.5-26.5-26.5z"/><path d="m244.576 297.467c-11.346 11.303-11.382 29.728-.08 41.074l39.033 39.185 39.033-39.185c11.302-11.347 11.266-29.771-.08-41.074-10.661-10.621-27.573-11.228-38.953-1.851-11.381-9.378-28.293-8.769-38.953 1.851zm67.32 10.627c5.486 5.465 5.504 14.375.039 19.861l-28.406 28.517-28.406-28.517c-5.465-5.486-5.447-14.396.039-19.861 2.736-2.726 6.323-4.087 9.91-4.087 3.605 0 7.211 1.376 9.951 4.126l8.506 8.54 8.506-8.54c5.464-5.485 14.374-5.504 19.861-.039z"/></g></svg>