<svg id="Capa_1" enable-background="new 0 0 511 511" height="512" viewBox="0 0 511 511" width="512" xmlns="http://www.w3.org/2000/svg"><g id="Outline_23_" fill="#233d91"><path d="m436 287.5c0-47.757-34.515-87.601-79.91-95.906l28.566-21.617-14.156-33.977h-64l-14.156 33.976 28.566 21.617c-45.395 8.306-79.91 48.15-79.91 95.907 0 2.83.128 5.67.374 8.5h-60.374v-296h-133.5c-26.191 0-47.5 21.309-47.5 47.5v216c0 26.191 21.309 47.5 47.5 47.5h118.5v152.5c0 26.191 21.309 47.5 47.5 47.5h250c26.191 0 47.5-21.309 47.5-47.5v-167.5h-75.374c.246-2.83.374-5.67.374-8.5zm-320 8.5h-68.5c-17.921 0-32.5-14.58-32.5-32.5v-216c0-17.92 14.579-32.5 32.5-32.5h68.5zm50 0h-35v-281h35zm144.656-130.976 5.844-14.024h44l5.844 14.024-27.844 21.071zm27.844 39.976c45.49 0 82.5 37.009 82.5 82.5 0 2.832-.163 5.672-.453 8.5h-164.094c-.29-2.828-.453-5.668-.453-8.5 0-45.491 37.01-82.5 82.5-82.5zm157.5 258.5c0 17.92-14.579 32.5-32.5 32.5h-250c-17.921 0-32.5-14.58-32.5-32.5v-102.5h315zm0-152.5v35h-315v-35z"/><path d="m433.5 141.676 64.322-64.573c8.521-8.554 13.201-19.914 13.178-31.988s-4.747-23.416-13.302-31.937c-8.553-8.523-19.909-13.164-31.988-13.178-12.074.023-23.416 4.747-31.937 13.301l-.273.274-.273-.274c-8.522-8.554-19.864-13.278-31.938-13.301-.03 0-.06 0-.09 0-12.04 0-23.365 4.678-31.897 13.177-8.555 8.521-13.278 19.863-13.302 31.937-.023 12.074 4.656 23.435 13.178 31.988zm-53.612-117.871c5.701-5.68 13.267-8.805 21.312-8.805h.061c8.066.016 15.646 3.172 21.339 8.887l10.9 10.943 10.9-10.943c5.693-5.715 13.271-8.872 21.339-8.887 8.08-.018 15.657 3.111 21.373 8.805 5.716 5.693 8.872 13.271 8.888 21.338s-3.111 15.658-8.805 21.373l-53.695 53.905-53.695-53.904c-5.693-5.715-8.82-13.306-8.805-21.373.016-8.068 3.172-15.646 8.888-21.339z"/><path d="m254.5 143.127 39.033-39.185c11.302-11.347 11.266-29.772-.08-41.074-10.662-10.621-27.572-11.229-38.952-1.852-5.171-4.272-11.605-6.602-18.401-6.615-.02 0-.038 0-.058 0-7.736 0-15.014 3.005-20.495 8.467-11.346 11.302-11.382 29.728-.08 41.074zm-28.367-69.632c2.651-2.641 6.169-4.094 9.91-4.094h.028c3.751.007 7.275 1.475 9.923 4.132l8.506 8.54 8.506-8.54c5.464-5.486 14.374-5.504 19.861-.039 5.486 5.465 5.504 14.375.039 19.861l-28.406 28.518-28.406-28.517c-5.465-5.486-5.448-14.396.039-19.861z"/></g></svg>